<?xml version="1.0" standalone="no"?>
<!DOCTYPE svg PUBLIC "-//W3C//DTD SVG 1.1//EN" "http://www.w3.org/Graphics/SVG/1.1/DTD/svg11.dtd">
<svg xmlns="http://www.w3.org/2000/svg">
<defs >
<font id="Domine" horiz-adv-x="594" ><font-face
    font-family="Domine Medium"
    units-per-em="1000"
    panose-1="2 4 5 3 4 4 3 6 2 4"
    ascent="900"
    descent="-240"
    alphabetic="0" />
<glyph unicode=" " horiz-adv-x="248" />
<glyph unicode="!" horiz-adv-x="287" d="M176 205H110Q110 244 108 287T104 373T99 448T94 500Q91 537 86 573T81 650Q81 685 97 707T145 730Q179 730 192 707T205 651Q205 609 201 573T192 500Q192 482 189 449T184 373T179 288T176 205ZM211 52Q211 20 193
3T143 -15Q112 -15 94 2T76 52Q76 84 94 102T143 121Q174 121 192 103T211 52Z" />
<glyph unicode="&quot;" horiz-adv-x="393" d="M135 480H78Q78 525 72 568T59 645T52 699Q52 726 64 743T107 760Q138 760 149 744T161 699Q161 680 155 646T142 568T135 480ZM314 480H257Q257 525 251 568T238 645T231 699Q231 726 243 743T286 760Q317 760 328
744T340 699Q340 680 334 646T321 568T314 480Z" />
<glyph unicode="#" horiz-adv-x="744" d="M397 -10L438 197H245L204 -10H137L178 197H34V255H189L229 456H83V514H240L283 730H350L307 514H500L543 730H610L567 514H710V456H556L516 255H661V197H505L464 -10H397ZM296 456L256 255H449L489 456H296Z" />
<glyph unicode="$" horiz-adv-x="575" d="M261 -130V-10Q192 -5 142 20T66 83T39 162Q39 196 57 217T108 238Q137 238 154 222T171 180Q171 157 158 140T129 115Q149 89 181 71T261 49V308Q258 310 255 311T248 314Q199 334 154 359T80 426T51 531Q51 621 108
674T261 731V851H318V729Q378 723 421 698T489 638T513 563Q513 529 496 509T447 488Q421 488 404 503T386 544Q386 564 396 581T422 606Q389 663 318 670V412Q392 379 441 350T514 283T539 190Q539 99 480 47T318 -10V-130H261ZM421 155Q421 204 392 233T318 285V50Q367
56 394 83T421 155ZM162 557Q162 511 186 487T261 437V670Q211 665 187 636T162 557Z" />
<glyph unicode="%" horiz-adv-x="686" d="M119 -10L505 730H569L183 -10H119ZM291 563Q291 649 328 693Q344 712 366 720T422 729Q485 729 516 693Q553 650 553 564Q553 521 544 487T517 432Q486 396 421 396Q391 396 368 404T327 432Q291 474 291 563ZM485 563Q485
630 467 665Q459 678 449 685T422 692Q407 692 397 686T378 665Q368 647 364 621T359 563Q359 531 363 505T378 461Q385 447 395 441T422 434Q438 434 447 440T466 461Q476 478 480 503T485 563ZM389 157Q389 243 425 287Q442 306 464 314T520 323Q583 323 614
287Q651 244 651 158Q651 115 642 81T614 26Q583 -10 519 -10Q489 -10 466 -2T425 26Q389 68 389 157ZM583 157Q583 224 564 259Q556 272 546 279T520 286Q505 286 494 280T475 259Q466 241 462 215T457 157Q457 125 461 99T475 55Q483 41 493 35T520 28Q535 28
545 34T564 55Q573 72 578 97T583 157Z" />
<glyph unicode="&amp;" horiz-adv-x="763" d="M710 339L634 320Q634 260 616 200T567 94Q577 75 598 63T643 51Q666 51 688 63T726 94L755 51Q712 -10 630 -10Q595 -10 563 2T502 39Q465 14 421 2T321 -10Q200 -10 131 43T61 188Q61 250 96 295T214 386Q159 474
159 553Q159 605 181 644T244 706T339 728Q389 728 426 710T485 660T506 587Q506 531 465 478T339 381L519 148Q540 181 554 225T568 320L491 339V385H710V339ZM333 53Q371 53 401 61T453 85L255 338Q216 317 194 277T171 189Q171 124 213 89T333 53ZM254 576Q254
541 265 508T301 435Q366 473 396 507T427 582Q427 621 403 645T336 669Q298 669 276 646T254 576Z" />
<glyph unicode="&apos;" horiz-adv-x="214" d="M135 480H78Q78 525 72 568T59 645T52 699Q52 726 64 743T107 760Q138 760 149 744T161 699Q161 680 155 646T142 568T135 480Z" />
<glyph unicode="(" horiz-adv-x="375" d="M40 353Q40 249 62 160T123 2T215 -110T331 -167L361 -104Q298 -91 251 -31T177 127T151 351Q151 476 178 575T253 738T366 816L342 872Q276 856 221 810T125 695T62 539T40 353Z" />
<glyph unicode=")" horiz-adv-x="375" d="M334 353Q334 452 312 539T250 695T154 810T32 872L8 816Q73 801 121 738T196 576T223 351Q223 225 197 127T123 -31T13 -104L44 -167Q107 -154 160 -111T252 2T312 160T334 353Z" />
<glyph unicode="*" horiz-adv-x="474" d="M280 747Q280 723 271 689T255 626Q278 639 301 653T345 678T385 688Q401 688 414 677T427 643Q427 624 415 614T385 601T345 596Q326 595 305 595T265 593Q286 576 311 556T354 516T373 475Q373 460 360 447T328 433Q306
433 290 455T262 510T237 571Q223 538 211 506T185 453T147 432Q130 432 116 445T102 475Q102 492 118 512T159 553T207 594Q191 594 174 594T140 596Q118 596 97 599T61 611T47 642Q47 664 60 676T89 688Q105 688 127 678T172 654T217 627Q210 659 201 691T192
747Q192 769 203 782T236 796Q256 796 268 783T280 747Z" />
<glyph unicode="+" horiz-adv-x="492" d="M42 326V398H207V561H285V398H450V326H285V163H207V326H42Z" />
<glyph unicode="," horiz-adv-x="249" d="M122 123Q156 123 176 99T196 35Q196 -19 165 -65T67 -152L42 -123Q82 -90 106 -61T133 -8L129 -5Q124 -13 105 -13Q83 -13 68 5T52 53Q52 84 71 103T122 123Z" />
<glyph unicode="-" horiz-adv-x="383" d="M66 239V316H317V239H66Z" />
<glyph unicode="." horiz-adv-x="242" d="M53 53Q53 85 71 104T121 123Q152 123 171 104T190 53Q190 22 172 4T121 -15Q89 -15 71 2T53 53Z" />
<glyph unicode="/" horiz-adv-x="314" d="M51 -10L197 730H264L118 -10H51Z" />
<glyph unicode="0" horiz-adv-x="677" d="M54 360Q54 552 137 652Q173 696 222 713T339 730Q386 730 422 723T487 698T541 652Q624 552 624 360Q624 264 603 191T541 68Q516 39 487 22T422 -2T339 -10Q271 -10 222 7T137 68Q54 168 54 360ZM502 360Q502 445 491
507T457 608Q438 640 412 655T339 671Q296 671 267 656T221 608Q198 570 187 508T176 360Q176 275 187 213T221 112Q238 81 266 65T339 49Q385 49 411 65T457 112Q480 150 491 212T502 360Z" />
<glyph unicode="1" horiz-adv-x="405" d="M170 65V628H43V684Q67 684 99 689T159 705T199 730H277V65L384 46V0H43V46L170 65Z" />
<glyph unicode="2" horiz-adv-x="593" d="M139 100H444L468 228H533V0H48V66Q48 119 74 162T142 243T230 318T318 391T386 469T413 559Q413 614 377 643T273 672Q214 672 181 648T137 575Q169 575 186 559T203 514Q203 486 185 470T135 453Q100 453 81 474T61
542Q61 598 89 640T169 707T291 731Q361 731 413 707T494 640T524 536Q524 476 496 429T425 345T332 277T239 218T167 161T139 100Z" />
<glyph unicode="3" horiz-adv-x="583" d="M518 542Q518 478 480 433T376 376V372Q454 356 491 311T529 197Q529 134 497 88T407 16T278 -10Q209 -10 158 14T78 80T50 177Q50 221 68 244T126 268Q157 268 174 251T192 206Q192 179 174 163T126 146Q134 98 169 74T266
49Q337 49 374 83T411 183Q411 259 363 302T229 346V399Q309 399 358 442T408 555Q408 613 374 642T276 672Q156 672 140 585Q171 585 188 570T206 526Q206 499 189 482T139 464Q100 464 79 490T58 558Q58 609 87 648T167 709T286 731Q354 731 406 708T488 642T518
542Z" />
<glyph unicode="4" horiz-adv-x="564" d="M318 65V208H27L15 257L336 730H425V270H534L524 208H425V65L502 46V0H221V46L318 65ZM318 608L94 270H318V608Z" />
<glyph unicode="5" horiz-adv-x="555" d="M448 620L490 752H438L420 720H132L76 364L133 341Q153 366 188 378T264 391Q337 391 366 346T396 222Q396 143 365 95T259 47Q201 47 165 71T121 132Q153 132 170 151T188 194Q188 218 173 236T124 254Q92 254 68 227T44
153Q44 110 71 73T147 13T263 -10Q339 -10 395 19T483 102T514 227Q514 296 485 346T405 423T283 451Q240 451 206 440T142 407L174 620H448Z" />
<glyph unicode="6" horiz-adv-x="606" d="M160 351H164Q192 388 239 409T341 430Q405 430 452 403T527 326T554 210Q554 108 490 49T315 -10Q183 -10 119 76T55 340Q55 531 123 631T322 731Q383 731 429 710T502 651T528 563Q528 522 511 500T456 477Q423 477
405 494T386 540Q386 568 404 584T452 601Q446 635 414 653T331 671Q240 671 199 606T158 398Q158 384 158 374T160 351ZM437 210Q437 368 309 368Q247 368 214 329T181 210Q181 131 214 91T309 50Q437 50 437 210Z" />
<glyph unicode="7" horiz-adv-x="518" d="M269 56Q269 25 257 8T212 -10Q181 -10 169 8T156 57Q156 99 169 154T204 271T258 396T325 516T400 620H118L99 503H37V720H506V654Q456 595 413 523T338 371T287 211T269 56Z" />
<glyph unicode="8" horiz-adv-x="575" d="M493 570Q493 515 465 468T384 389Q458 349 492 304T526 198Q526 135 494 89T405 16T271 -10Q167 -10 109 40T50 178Q50 242 82 290T185 378Q130 418 107 456T83 546Q83 632 138 681T293 731Q385 731 439 689T493 570ZM235
346Q182 316 156 276T130 180Q130 114 166 82T272 49Q342 49 380 79T418 167Q418 199 402 224T345 279T235 346ZM338 419Q376 440 399 480T423 566Q423 619 391 645T298 672Q240 672 209 648T178 574Q178 530 213 495T338 419Z" />
<glyph unicode="9" horiz-adv-x="606" d="M445 370H441Q413 333 366 312T264 291Q201 291 153 318T78 395T51 511Q51 579 80 628T164 704T292 731Q425 731 487 645T550 380Q550 189 481 90T276 -10Q216 -10 171 10T101 68T76 155Q76 196 94 219T148 242Q181 242
199 225T218 179Q218 151 201 135T152 118Q157 85 186 68T265 50Q363 50 405 114T447 323Q447 340 447 349T445 370ZM168 511Q168 353 296 353Q359 353 391 393T424 511Q424 590 392 630T296 671Q168 671 168 511Z" />
<glyph unicode=":" horiz-adv-x="269" d="M66 304Q66 336 84 355T134 374Q165 374 184 355T203 304Q203 273 185 255T134 236Q102 236 84 253T66 304ZM66 399Q66 431 84 450T134 469Q165 469 184 450T203 399Q203 368 185 350T134 331Q102 331 84 348T66 399Z" />
<glyph unicode=";" horiz-adv-x="287" d="M75 399Q75 431 93 450T143 469Q174 469 193 450T212 399Q212 368 194 350T143 331Q111 331 93 348T75 399ZM143 123Q177 123 197 99T217 35Q217 -19 186 -65T88 -152L63 -123Q103 -90 127 -61T154 -8L150 -5Q145 -13
126 -13Q104 -13 89 5T73 53Q73 84 92 103T143 123Z" />
<glyph unicode="&lt;" horiz-adv-x="478" d="M412 135L33 331V389L412 584V503L114 360L412 217V135Z" />
<glyph unicode="=" horiz-adv-x="569" d="M71 418V486H499V418H71ZM71 230V299H499V230H71Z" />
<glyph unicode="&gt;" horiz-adv-x="478" d="M444 331L65 135V217L363 360L65 503V584L444 389V331Z" />
<glyph unicode="?" horiz-adv-x="489" d="M247 205H181Q181 246 190 277T221 340T284 412Q319 447 334 479T349 551Q349 609 319 640T232 671Q196 671 168 657T139 622Q159 611 170 592T182 550Q182 522 163 503T111 484Q77 484 55 511T33 578Q33 621 60 655T135
710T241 731Q306 731 355 709T432 648T460 557Q460 512 438 472T360 381Q316 341 292 313T257 260T247 205ZM147 52Q147 84 165 102T215 121Q246 121 264 103T282 52Q282 21 265 3T215 -15Q184 -15 166 2T147 52Z" />
<glyph unicode="@" horiz-adv-x="811" d="M406 449Q483 449 507 394L539 431H589L552 185Q550 172 549 162T548 141Q548 110 560 96T594 81Q625 81 651 108T692 180T708 281Q708 364 673 424T573 519T420 553Q351 553 292 526T188 451T120 339T95 199Q95 60 173
-17T394 -94Q533 -94 640 -25L659 -61Q604 -98 535 -117T392 -136Q284 -136 206 -96T86 20T43 198Q43 282 72 354T153 480T274 564T423 594Q525 594 601 555T719 447T762 284Q762 214 738 159T673 71T578 39Q535 39 511 57T481 107Q458 74 420 54T338 34Q265 34
228 76T191 196Q191 268 219 325T296 416T406 449ZM408 405Q351 405 315 346T279 186Q279 129 296 104T352 78Q412 78 448 135T484 296Q484 354 466 379T408 405Z" />
<glyph unicode="A" horiz-adv-x="723" d="M526 69L470 239H210L152 69L235 48V0H-9V48L73 69L311 730H414L649 69L729 48V0H444V48L526 69ZM342 627L232 302H449L346 627H342Z" />
<glyph unicode="B" horiz-adv-x="688" d="M609 547Q609 509 592 476T544 421T475 394V390Q553 374 598 324T643 201Q643 145 614 98T539 27Q511 13 470 7T355 0H46V48L130 69V651L46 672V720H392Q497 720 554 669Q580 645 594 613T609 547ZM358 344H240V65H340Q386
65 414 70T461 86Q488 101 505 132T522 208Q522 245 509 272T476 315Q458 330 430 337T358 344ZM240 657V407H355Q425 407 458 442Q473 458 484 481T495 535Q495 565 484 589T458 627Q428 657 359 657H240Z" />
<glyph unicode="C" horiz-adv-x="689" d="M373 671Q328 671 294 656T236 609Q207 570 190 508T172 372Q172 301 187 239T229 135Q254 96 292 78T385 59Q561 59 590 228H655Q608 -10 371 -10Q233 -10 151 70Q102 118 76 191T50 353Q50 454 83 536T176 667Q252 730
377 730Q439 730 478 714T555 657L575 720H640V494H569Q555 582 505 626T373 671Z" />
<glyph unicode="D" horiz-adv-x="770" d="M240 65H385Q439 65 477 81T541 131Q568 166 582 221T596 354Q596 505 541 581Q514 619 474 637T375 655H240V65ZM46 720H392Q541 720 624 636Q671 588 696 518T721 368Q721 284 695 211T621 87Q538 0 383 0H46V48L130
69V651L46 672V720Z" />
<glyph unicode="E" horiz-adv-x="689" d="M480 238H419L401 337H245V65H538L568 223H636V0H41V48L135 69V651L41 672V720H614V508H552L521 657H245V402H401L419 502H480V238Z" />
<glyph unicode="F" horiz-adv-x="641" d="M480 227H419L402 326H245V72L362 53V0H41V48L135 72V651L41 672V720H614V506H550L518 657H245V391H402L419 491H480V227Z" />
<glyph unicode="G" horiz-adv-x="757" d="M376 60Q461 60 501 102T542 228V288L458 309V359H736V309L652 288V0H590L565 79Q522 31 476 11T366 -10Q229 -10 147 74Q101 121 76 193T50 352Q50 441 76 517T151 644Q192 687 247 708T373 730Q433 730 474 713T553
653L575 720H640V494H569Q555 579 506 625T372 671Q323 671 290 655T233 606Q205 564 188 501T171 366Q171 293 188 230T238 122Q262 90 295 75T376 60Z" />
<glyph unicode="H" horiz-adv-x="808" d="M679 651V69L763 48V0H485V48L569 69V338H240V69L324 48V0H46V48L130 69V651L46 672V720H324V672L240 651V401H569V651L485 672V720H763V672L679 651Z" />
<glyph unicode="I" horiz-adv-x="379" d="M245 651V69L339 48V0H41V48L135 69V651L41 672V720H339V672L245 651Z" />
<glyph unicode="J" horiz-adv-x="588" d="M362 207V651L263 672V720H551V672L472 651V218Q472 149 443 98T360 18T236 -11Q171 -11 121 12T43 77T15 173Q15 216 32 240T85 264Q116 264 135 247T154 201Q154 178 141 155T111 123Q112 93 145 73T232 52Q298 52 330
90T362 207Z" />
<glyph unicode="K" horiz-adv-x="743" d="M245 651V376L510 651L419 672V720H692V672L604 651L375 424L670 67L754 48V0H465V48L531 68L302 351L245 296V69L329 48V0H41V48L135 69V651L41 672V720H329V672L245 651Z" />
<glyph unicode="L" horiz-adv-x="634" d="M245 651V65H507L541 238H606V0H41V48L135 69V651L41 672V720H349V672L245 651Z" />
<glyph unicode="M" horiz-adv-x="966" d="M486 96L677 720H921V672L837 651V69L921 48V0H654V48L727 69V650L529 0H403L205 650V69L278 48V0H46V48L130 69V651L46 672V720H294L482 96H486Z" />
<glyph unicode="N" horiz-adv-x="806" d="M130 69V651L46 672V720H250L611 175V651L527 672V720H770V672L686 651V0H601L205 591V69L289 48V0H46V48L130 69Z" />
<glyph unicode="O" horiz-adv-x="767" d="M718 368Q718 282 692 206T618 77Q576 33 518 12T381 -10Q303 -10 244 11T146 74Q101 121 76 193T50 352Q50 439 76 515T150 643Q192 688 248 709T384 730Q461 730 519 710T621 646Q669 597 693 524T718 368ZM175 372Q175
290 189 227T229 124Q254 87 292 69T387 50Q489 50 538 116Q565 152 579 212T593 354Q593 436 579 497T538 597Q512 635 473 653T380 671Q329 671 292 654T230 605Q175 532 175 372Z" />
<glyph unicode="P" horiz-adv-x="636" d="M240 343H354Q382 343 406 351T445 374Q465 395 479 427T493 498Q493 534 480 565T445 621Q429 638 404 647T350 657H240V343ZM386 280H240V69L335 48V0H46V48L130 69V651L46 672V720H387Q434 720 473 708T537 672Q572
641 592 598T613 506Q613 457 592 409T535 330Q509 305 470 293T386 280Z" />
<glyph unicode="Q" horiz-adv-x="767" d="M718 368Q718 281 692 205T618 77Q581 37 532 17T420 -9V-13L537 -89Q574 -113 618 -113Q635 -113 646 -108T674 -91L692 -122Q672 -156 640 -170T561 -185Q506 -185 464 -166T398 -109L338 -8Q216 1 146 74Q100 122 75
194T50 352Q50 439 76 515T150 643Q192 688 249 709T384 730Q461 730 520 710T621 646Q668 598 693 525T718 368ZM175 374Q175 291 189 227T229 124Q276 50 386 50Q490 50 538 116Q593 189 593 354Q593 519 538 597Q487 671 381 671Q279 671 230 605Q175 535 175
374Z" />
<glyph unicode="R" horiz-adv-x="710" d="M551 382Q533 368 510 357T451 339Q458 331 469 318T490 287L620 67L709 48V0H493V48L353 320H240V69L335 48V0H46V48L130 69V651L46 672V720H400Q448 720 484 711T549 682Q585 658 606 616T627 532Q627 490 607 450T551
382ZM240 383H373Q428 383 464 414Q484 432 495 462T507 526Q507 559 495 586T463 631Q446 645 424 651T369 657H240V383Z" />
<glyph unicode="S" horiz-adv-x="604" d="M321 -11Q263 -11 218 6T140 58L129 0H63V232H134Q140 135 182 92T305 49Q372 49 407 75T442 154Q442 197 421 225T359 275T262 319Q200 345 156 371T89 434T66 529Q66 625 125 678T285 731Q384 731 446 675L454 720H520V488H453Q453
583 418 627T306 672Q177 672 177 553Q177 519 190 498T234 459T324 416Q407 380 457 347T530 276T553 186Q553 123 523 79T441 12T321 -11Z" />
<glyph unicode="T" horiz-adv-x="663" d="M29 720H635V505H579L547 655H387V72L493 48V0H171V48L277 72V655H116L85 505H29V720Z" />
<glyph unicode="U" horiz-adv-x="776" d="M589 264V651L505 672V720H746V672L662 651V243Q662 119 593 54T389 -11Q256 -11 185 55T113 244V651L29 672V720H307V672L223 651V266Q223 49 411 49Q505 49 547 100T589 264Z" />
<glyph unicode="V" horiz-adv-x="719" d="M187 651L377 95H381L562 651L479 672V720H723V672L641 651L418 0H310L69 651L-11 672V720H269V672L187 651Z" />
<glyph unicode="W" horiz-adv-x="1044" d="M737 105L887 652L808 672V720H1047V672L964 651L776 0H662L520 464L392 0H278L71 651L-7 672V720H287V672L191 651L348 105H352L485 596L473 651L395 672V720H669V672L577 651L733 105H737Z" />
<glyph unicode="X" horiz-adv-x="741" d="M339 672L245 651L378 439L538 651L447 672V720H720V672L622 651L419 386L630 69L736 48V0H399L397 48L500 69L351 308L183 69L292 48V0H10V48L103 69L310 358L118 651L12 672V720H339V672Z" />
<glyph unicode="Y" horiz-adv-x="679" d="M359 345L526 651L445 672V720H682V672L600 651L399 282V69L493 48V0H195V48L289 69V266L76 651L-7 672V720H279V672L195 651L359 345Z" />
<glyph unicode="Z" horiz-adv-x="651" d="M508 65L540 228H607V0H34V61L456 655H159L127 503H65V720H584V659L162 65H508Z" />
<glyph unicode="[" horiz-adv-x="373" d="M90 -149V855H351V790H189V-84H351V-149H90Z" />
<glyph unicode="\" horiz-adv-x="314" d="M117 730L263 -10H196L50 730H117Z" />
<glyph unicode="]" horiz-adv-x="373" d="M283 855V-149H22V-84H184V790H22V855H283Z" />
<glyph unicode="^" horiz-adv-x="385" d="M334 639L245 790H140L52 639H115L193 725L271 639H334Z" />
<glyph unicode="_" horiz-adv-x="626" d="M66 -63V5H560V-63H66Z" />
<glyph unicode="`" horiz-adv-x="259" d="M175 715L224 639H161L123 667Q76 702 56 722T36 758Q36 776 48 785T85 795Q109 795 127 778T175 715Z" />
<glyph unicode="a" horiz-adv-x="541" d="M35 117Q35 197 109 242T350 312Q346 368 339 399T321 450Q308 475 285 488T233 501Q207 501 186 492T158 466Q172 457 178 442T184 413Q184 388 166 372T121 356Q95 356 79 373T62 420Q62 462 91 491T165 535T255 550Q298
550 333 537T393 502Q460 437 460 281V141Q460 92 466 73T495 54H540V19Q462 -10 419 -10Q388 -10 377 12T366 99H362Q331 48 280 19T170 -10Q107 -10 71 24T35 117ZM219 53Q244 53 273 67T322 107Q337 125 345 152T353 216Q353 231 352 247T349 278Q272 262 229
244T167 201T148 140Q148 97 168 75T219 53Z" />
<glyph unicode="b" horiz-adv-x="606" d="M562 275Q562 210 543 152T490 55Q434 -10 329 -10Q278 -10 238 13T167 101L137 0H80V715L3 734V780H187V482Q217 520 254 535T337 550Q388 550 429 535T497 487Q528 449 545 394T562 275ZM187 273Q187 212 196 170T222
100Q238 75 261 61T320 47Q353 47 376 60T414 94Q431 120 439 163T447 263Q447 322 439 367T414 440Q399 466 377 479T319 493Q287 493 262 482T222 447Q207 420 197 377T187 273Z" />
<glyph unicode="c" horiz-adv-x="539" d="M301 550Q361 550 405 531T474 476T499 394Q499 354 481 333T430 312Q398 312 382 330T366 376Q366 401 379 419T416 444Q402 469 374 481T307 494Q231 494 195 443T158 277Q158 226 164 192T184 134Q203 100 233 81T306
62Q351 62 394 82T467 140L505 110Q463 48 408 19T282 -10Q211 -10 160 18T79 102Q43 169 43 264Q43 351 74 415T164 514T301 550Z" />
<glyph unicode="d" horiz-adv-x="625" d="M43 266Q43 332 60 390T111 485Q140 517 180 533T272 550Q317 550 353 533T418 472V715L341 734V780H525V65L602 46V0L437 -10L429 72Q398 26 359 8T271 -10Q219 -10 179 5T112 53Q81 91 62 146T43 266ZM418 266Q418 326
409 370T384 441Q368 466 345 479T286 493Q256 493 231 482T190 446Q173 421 166 376T158 275Q158 215 167 171T191 100Q207 75 231 61T289 47Q320 47 345 58T384 93Q400 120 409 164T418 266Z" />
<glyph unicode="e" horiz-adv-x="548" d="M504 261H155Q155 190 175 143Q194 101 227 82T303 62Q349 62 389 81T461 137L500 107Q465 59 412 25T277 -10Q207 -10 154 19T73 106Q58 137 51 175T44 256Q44 396 108 473T286 550Q391 550 449 487T507 311Q507 301
507 292T504 261ZM282 491Q167 491 156 315H396V346Q396 416 366 453T282 491Z" />
<glyph unicode="f" horiz-adv-x="372" d="M18 480V525L115 539V555Q115 667 167 728T310 790Q369 790 404 762T440 689Q440 660 425 645T384 629Q358 629 343 643T328 682Q328 706 344 729Q329 747 303 747Q282 747 266 738Q244 724 235 701T224 650T222 590V540H350V480H222V65L330
46V0H38V46L115 65V480H18Z" />
<glyph unicode="g" horiz-adv-x="565" d="M514 -9Q514 -90 449 -137T259 -184Q187 -184 135 -170T55 -128T27 -59Q27 -12 55 14T135 46V50Q66 70 66 127Q66 148 76 167T107 203T162 229Q112 245 84 284T56 378Q56 458 111 504T262 550Q315 550 352 539T417 504L451
516L543 560H560V467H543L473 475H442Q468 438 468 384Q468 304 415 258T265 212Q255 212 245 212T225 214Q186 208 165 194T144 157Q144 135 162 128T232 120H348Q430 120 472 89T514 -9ZM294 38H239Q172 38 142 16T112 -43Q112 -129 264 -129Q346 -129 389 -104T432
-32Q432 7 402 22T294 38ZM154 382Q154 323 180 293T260 262Q317 262 343 292T370 382Q370 440 344 469T260 499Q207 499 181 470T154 382Z" />
<glyph unicode="h" horiz-adv-x="649" d="M446 65V278Q446 343 443 375T430 425Q406 474 342 474Q314 474 288 463T244 431Q226 414 217 389T207 326V65L274 46V0H23V46L100 65V715L23 734V780H207V446Q236 494 283 522T385 550Q426 550 457 537T508 499Q532 470
542 419T553 281V65L630 46V0H379V46L446 65Z" />
<glyph unicode="i" horiz-adv-x="318" d="M111 475L34 494V540H218V65L295 46V0H34V46L111 65V475ZM98 698Q98 728 116 746T164 764Q195 764 213 746T231 698Q231 669 214 651T164 633Q133 633 116 650T98 698Z" />
<glyph unicode="j" horiz-adv-x="289" d="M209 540V85Q209 11 204 -31T187 -101Q167 -145 131 -167T45 -190Q-12 -190 -48 -164T-85 -95Q-85 -68 -70 -51T-26 -33Q-1 -33 13 -48T28 -90Q28 -103 24 -114T11 -133Q13 -141 23 -144T46 -148Q77 -148 89 -120T102
-19V475L25 494V540H209ZM90 698Q90 728 108 746T156 764Q187 764 205 746T223 698Q223 669 205 651T156 633Q125 633 108 650T90 698Z" />
<glyph unicode="k" horiz-adv-x="600" d="M364 46L423 65L276 262L207 204V65L284 46V0H23V46L100 65V715L23 734V780H207V261L406 475L344 494V540H569V494L491 475L345 325L540 63L593 46V0H364V46Z" />
<glyph unicode="l" horiz-adv-x="314" d="M103 65V715L26 734V780H210V65L287 46V0H26V46L103 65Z" />
<glyph unicode="m" horiz-adv-x="982" d="M111 65V475L34 494V540H188L210 440H214Q243 490 291 520T395 550Q436 550 468 535T515 496Q531 471 541 430Q573 486 624 518T733 550Q773 550 805 535T854 492Q866 473 873 443T883 366T886 245V65L963 46V0H712V46L779
65V278Q779 343 776 375T763 425Q752 449 732 460T687 472Q662 472 639 463T597 437Q575 417 565 390T552 322V65L619 46V0H378V46L445 65V278Q445 343 442 375T429 425Q418 449 398 460T353 472Q328 472 305 463T263 437Q241 417 231 390T218 322V65L285 46V0H34V46L111
65Z" />
<glyph unicode="n" horiz-adv-x="661" d="M111 65V475L34 494V540H188L210 440H214Q244 491 295 520T404 550Q487 550 527 496Q547 468 555 418T564 281V65L641 46V0H390V46L457 65V278Q457 341 454 373T441 425Q430 450 409 461T358 473Q303 473 263 438Q222
400 218 322V65L285 46V0H34V46L111 65Z" />
<glyph unicode="o" horiz-adv-x="586" d="M543 273Q543 209 524 151T470 55Q439 21 394 6T291 -10Q234 -10 190 5T114 54Q80 91 62 146T43 265Q43 330 62 388T116 485Q149 519 192 534T294 550Q351 550 396 535T472 486Q507 449 525 393T543 273ZM171 215Q175
168 189 135T225 82Q247 66 270 60T323 60Q380 77 403 149Q415 188 418 233T415 326Q411 372 397 405T361 458Q340 475 316 480T262 480Q205 463 184 391Q160 313 171 215Z" />
<glyph unicode="p" horiz-adv-x="624" d="M207 -115L304 -134V-180H23V-134L100 -115V475L23 494V540H177L192 463Q224 513 264 531T356 550Q407 550 448 535T516 487Q546 449 563 396T581 280Q581 216 562 160T509 65Q453 0 348 0Q305 0 271 16T207 74V-115ZM206
279Q206 222 215 179T240 110Q256 85 279 71T338 57Q371 57 394 69T433 104Q450 129 458 173T466 271Q466 327 457 370T432 442Q416 468 393 480T335 493Q302 493 278 482T240 447Q225 421 216 379T206 279Z" />
<glyph unicode="q" horiz-adv-x="606" d="M418 -115V67Q389 29 353 15T272 0Q221 0 180 15T112 63Q81 101 62 154T43 270Q43 334 61 390T111 485Q164 550 272 550Q325 550 366 526T438 437L468 540H525V-115L602 -134V-180H321V-134L418 -115ZM418 271Q418 387
383 440Q367 466 345 479T286 493Q256 493 231 482T190 446Q172 421 165 378T158 278Q158 165 190 110Q207 83 230 70T287 57Q322 57 346 68T383 103Q400 130 409 172T418 271Z" />
<glyph unicode="r" horiz-adv-x="463" d="M335 477Q332 479 329 480T321 481Q310 481 296 469T270 439T248 400Q234 366 226 327T218 242V65L326 46V0H34V46L111 65V480L34 499V540H188L210 408H214Q237 476 276 513T362 550Q401 550 427 526T453 460Q453 430
437 410T392 390Q361 390 346 407T330 450Q330 456 330 461T335 477Z" />
<glyph unicode="s" horiz-adv-x="507" d="M244 41Q298 41 333 62T369 123Q369 154 347 173T293 205T227 227Q186 240 148 258T86 308T62 391Q62 463 114 506T261 550Q345 550 394 515T444 421Q444 389 429 371T385 352Q359 352 343 366T327 402Q327 421 337 436T363
459Q348 479 325 489T265 499Q209 499 182 478T154 418Q154 389 167 372T207 343T270 319Q306 308 340 296T403 265T449 219T466 152Q466 101 437 65T356 9T240 -10Q150 -10 96 26T42 122Q42 157 59 177T105 197Q129 197 147 183T165 146Q165 127 154 110T129 85Q141
67 171 54T244 41Z" />
<glyph unicode="t" horiz-adv-x="349" d="M8 485V526L105 540L118 665L212 679V540H340V485H212V138Q212 104 213 92T217 71Q220 64 228 62T254 59H324V25Q272 7 233 -1T171 -10Q126 -10 113 27Q109 39 107 58T105 114V485H8Z" />
<glyph unicode="u" horiz-adv-x="639" d="M201 540V262Q201 198 204 166T216 115Q226 91 247 79T293 66Q320 66 344 76T387 103Q428 140 432 218V475L345 494V540H539V65L616 46V0L451 -10L440 100H436Q407 49 357 20T250 -10Q212 -10 181 4T131 44Q112 72 103
123T94 259V475L27 494V540H201Z" />
<glyph unicode="v" horiz-adv-x="597" d="M355 -10H242L65 475L9 494V540H243V494L177 475L311 74H315L450 475L388 494V540H588V494L530 475L355 -10Z" />
<glyph unicode="w" horiz-adv-x="881" d="M176 475L273 130L285 71H290L301 130L414 550H496L612 130L624 71H628L640 130L733 475L668 494V540H868V494L814 475L667 -10H554L440 370L329 -10H216L64 475L11 494V540H245V494L176 475Z" />
<glyph unicode="x" horiz-adv-x="573" d="M190 475L303 328L411 475L351 494V540H549V494L492 475L334 287L507 64L562 46V0H333V46L390 65L270 219L155 65L215 46V0H17V46L73 65L239 260L73 475L17 494V540H234V494L190 475Z" />
<glyph unicode="y" horiz-adv-x="593" d="M519 475L355 24Q325 -53 301 -100T247 -169T171 -190Q124 -190 91 -165T57 -102Q57 -72 74 -52T120 -32Q145 -32 159 -44T173 -81Q173 -93 166 -107T145 -129Q147 -139 157 -142T174 -146Q188 -146 200 -140T225 -112T255
-44L267 -7L62 475L2 494V540H236L244 494L173 475L313 98H317L438 475L380 494V540H580V494L519 475Z" />
<glyph unicode="z" horiz-adv-x="545" d="M408 61L428 197H495V0H42V61L365 479H146L122 348H55V540H491V479L169 61H408Z" />
<glyph unicode="{" horiz-adv-x="411" d="M5 322V391H39Q94 391 119 418T144 503Q144 521 143 553T139 617T137 667Q137 758 197 803T389 855V790Q308 785 275 759T241 674Q241 665 241 647T243 605T244 562T245 529Q245 460 220 421T136 362V357Q195 344 220
305T245 185Q245 171 245 149T243 104T242 60T241 31Q241 -28 275 -54T389 -85V-150Q258 -144 198 -99T137 39Q137 53 138 75T140 124T143 172T144 209Q144 268 120 295T39 322H5Z" />
<glyph unicode="|" horiz-adv-x="248" d="M91 -170V770H158V-170H91Z" />
<glyph unicode="}" horiz-adv-x="411" d="M406 391V322H372Q317 322 292 295T267 209Q267 195 268 173T270 124T273 76T274 39Q274 -53 213 -98T22 -150V-85Q102 -81 136 -55T170 31Q170 40 170 60T168 103T167 149T166 185Q166 265 191 304T275 357V362Q217 382
192 421T166 529Q166 541 166 561T168 605T169 646T170 674Q170 733 137 759T22 790V855Q152 849 213 804T274 667Q274 649 273 617T269 553T267 503Q267 445 292 418T372 391H406Z" />
<glyph unicode="~" horiz-adv-x="484" d="M71 299Q87 424 173 424Q207 424 229 411T271 383T315 369Q360 369 369 419H419Q402 288 317 288Q284 288 261 302T219 330T175 344Q131 344 121 299H71Z" />
<glyph unicode="&#xa0;" horiz-adv-x="248" />
<glyph unicode="&#xa1;" horiz-adv-x="267" d="M100 335H166Q166 296 168 253T173 167T179 92T182 40Q186 3 190 -33T195 -111Q195 -143 182 -166T135 -190Q103 -190 87 -168T71 -110Q71 -69 76 -33T84 40Q86 58 88 91T93 167T98 252T100 335ZM201 487Q201 456
183 438T133 419Q101 419 84 437T66 487Q66 519 84 537T134 555Q165 555 183 537T201 487Z" />
<glyph unicode="&#xa2;" horiz-adv-x="552" d="M263 -108V-9Q137 0 84 102Q48 169 48 264Q48 381 105 457T263 547V652H320V550Q404 547 457 505T510 393Q510 354 492 333T441 312Q410 312 394 330T377 376Q377 401 390 419T427 444Q413 468 386 480T320 494V63Q362
64 402 84T472 140L510 110Q472 55 426 27T320 -8V-108H263ZM189 134Q201 109 219 93T263 69V487Q211 472 187 422T163 277Q163 226 169 192T189 134Z" />
<glyph unicode="&#xa3;" horiz-adv-x="613" d="M74 321V389H198Q177 433 168 467T158 532Q158 611 214 656T368 701Q451 701 498 666T545 571Q545 540 530 521T487 502Q461 502 445 516T428 553Q428 571 437 586T464 610Q450 631 427 640T369 650Q312 650 284
627T255 555Q255 524 265 483T297 389H470V321H317Q322 293 323 276T325 245Q325 218 320 190T304 131Q355 102 382 92T435 81Q470 81 489 97T516 150H571Q560 65 532 28T451 -10Q431 -10 410 -3T358 22T276 76Q216 -10 142 -10Q93 -10 64 15T34 84Q34 114 48 135T87
168T143 180Q164 180 190 176T239 163Q242 174 243 190T245 225Q245 253 242 275T227 321H74ZM147 46Q191 46 214 107Q200 115 182 120T150 125Q128 125 115 114T102 84Q102 46 147 46Z" />
<glyph unicode="&#xa4;" horiz-adv-x="575" d="M292 177Q238 177 197 199T134 260T111 351Q111 401 135 441T200 504T292 527Q346 527 387 505T451 444T475 353Q475 304 451 264T385 200T292 177ZM296 237Q340 237 367 268T395 351Q395 401 366 433T290 465Q246
465 218 433T190 351Q190 303 220 270T296 237ZM180 420L71 538L110 576L227 467L180 420ZM404 419L357 467L474 576L513 538L404 419ZM173 289L221 241L103 133L64 171L173 289ZM411 289L520 171L481 133L363 242L411 289Z" />
<glyph unicode="&#xa5;" horiz-adv-x="747" d="M153 278V346H280L112 651L29 672V720H315V672L231 651L393 348H397L562 651L481 672V720H718V672L636 651L469 346H592V278H435V209H592V140H435V69L529 48V0H231V48L325 69V140H153V209H325V266L318 278H153Z" />
<glyph unicode="&#xa6;" horiz-adv-x="252" d="M93 -170V248H160V-170H93ZM93 368V770H160V368H93Z" />
<glyph unicode="&#xa7;" horiz-adv-x="533" d="M489 250Q489 198 464 159T394 96Q449 47 449 -25Q449 -103 394 -146T244 -190Q160 -190 114 -157T67 -64Q67 -31 82 -12T126 8Q151 8 167 -6T184 -43Q184 -61 174 -77T143 -99Q157 -120 179 -129T239 -139Q299 -139
328 -117T357 -49Q357 -15 341 7T297 46T231 82Q184 105 142 132T72 197T45 290Q45 342 70 381T139 444Q111 469 98 498T85 564Q85 643 136 686T282 730Q367 730 417 695T467 601Q467 569 452 551T407 532Q380 532 365 546T350 582Q350 600 360 616T386 639Q370
660 346 669T285 679Q229 679 203 658T177 592Q177 557 191 535T234 497T299 461Q347 437 390 410T461 345T489 250ZM250 377Q242 381 224 390T181 414Q164 401 153 375T142 319Q142 286 157 260T205 212T285 163Q295 159 312 150T356 126Q374 140 383 165T392
220Q392 251 379 276T335 326T250 377Z" />
<glyph unicode="&#xa8;" horiz-adv-x="407" d="M25 700Q25 730 42 747T88 764Q117 764 134 747T152 700Q152 671 135 654T88 637Q59 637 42 654T25 700ZM255 700Q255 730 272 747T318 764Q347 764 364 747T382 700Q382 671 365 654T318 637Q289 637 272 654T255 700Z" />
<glyph unicode="&#xa9;" horiz-adv-x="845" d="M421 -10Q342 -10 274 18T156 97T77 215T49 361Q49 439 77 506T155 623T274 702T421 730Q503 730 571 702T690 624T769 506T797 361Q797 283 769 216T689 98T570 19T421 -10ZM421 35Q490 35 548 59T650 128T718 232T742
361Q742 430 718 489T651 592T550 660T421 685Q354 685 297 661T197 593T130 490T106 361Q106 291 130 232T196 128T296 60T421 35ZM421 520Q372 520 349 488Q334 467 326 437T317 369Q317 335 324 306T345 255Q358 233 379 223T428 212Q471 212 497 235T533 302H572Q559
234 522 202T420 169Q346 169 302 211Q274 238 259 277T243 360Q243 410 262 454T315 526Q336 544 363 551T422 559Q452 559 473 551T515 520L525 553H564V427H522Q515 474 489 497T421 520Z" />
<glyph unicode="&#xaa;" horiz-adv-x="376" d="M51 492Q51 536 90 561T220 601Q214 656 204 673Q198 685 187 690T163 696Q148 696 138 690T123 675Q131 671 134 664T137 651Q137 636 126 628T98 620Q82 620 72 630T61 658Q61 681 78 697T121 721T175 730Q198
730 219 724T256 703Q274 686 282 656T290 582V507Q290 480 293 470T309 459H334V438Q312 430 294 426T263 422Q242 422 236 434T230 482H226Q211 455 185 439T126 422Q91 422 71 440T51 492ZM158 465Q168 465 181 470T204 488Q212 497 216 510T221 541Q221 549
221 557T219 574Q165 562 144 546T123 503Q123 465 158 465Z" />
<glyph unicode="&#xab;" horiz-adv-x="539" d="M148 255L281 54L243 16L38 234V272L242 488L280 458L148 255ZM359 255L492 54L454 16L249 234V272L453 488L491 458L359 255Z" />
<glyph unicode="&#xac;" horiz-adv-x="573" d="M69 323V403H498V184H428V323H69Z" />
<glyph unicode="&#xad;" horiz-adv-x="383" d="M66 239V316H317V239H66Z" />
<glyph unicode="&#xae;" horiz-adv-x="631" d="M314 230Q242 230 185 263T94 353T61 481Q61 553 94 609T184 698T314 730Q388 730 446 698T537 610T571 481Q571 410 538 353T446 263T314 230ZM314 272Q412 272 465 329T519 481Q519 576 466 632T314 688Q221 688
167 632T113 481Q113 386 167 329T314 272ZM393 491Q386 486 378 483T358 476Q361 471 364 467T371 458L415 383L447 376V356H358V376L311 468H282V384L320 376V356H201V376L231 384V585L201 593V613H339Q377 613 398 594Q409 585 414 573T420 545Q420 530 413
516T393 491ZM282 499H318Q328 499 337 502T353 512Q359 518 362 526T365 544Q365 554 362 562T351 574Q346 578 338 580T316 582H282V499Z" />
<glyph unicode="&#xaf;" horiz-adv-x="329" d="M25 655V730H304V655H25Z" />
<glyph unicode="&#xb0;" horiz-adv-x="364" d="M183 458Q120 458 82 495T44 593Q44 632 62 663T111 712T183 730Q244 730 283 693T322 595Q322 556 304 525T254 476T183 458ZM185 499Q219 499 240 525T262 593Q262 635 240 661T181 688Q147 688 126 662T104 594Q104
553 127 526T185 499Z" />
<glyph unicode="&#xb1;" horiz-adv-x="525" d="M68 365V427H228V580H296V427H456V365H296V212H228V365H68ZM68 65V127H456V65H68Z" />
<glyph unicode="&#xb2;" horiz-adv-x="329" d="M108 454H227L238 504H275V401H48V431Q48 459 64 481T104 524T152 563T192 605T208 654Q208 675 192 685T152 695Q138 695 126 692T105 681T93 662Q107 662 114 655T122 633Q122 620 114 612T89 604Q70 604 62 614T53
644Q53 683 82 706T160 730Q212 730 241 707T271 643Q271 612 255 589T214 547T166 515T125 486T108 454Z" />
<glyph unicode="&#xb3;" horiz-adv-x="325" d="M268 646Q268 616 250 597T200 572V568Q273 554 273 491Q273 449 240 423T151 397Q105 397 77 420T48 481Q48 501 56 511T82 522Q100 522 108 514T116 492Q116 480 110 473T92 465Q95 448 110 441T146 433Q175 433
190 445T206 485Q206 516 186 534T129 552V585Q163 585 184 602T205 650Q205 673 191 685T149 697Q128 697 113 689T94 667Q107 667 115 660T123 640Q123 627 115 618T88 609Q71 609 62 621T52 652Q52 687 80 708T157 730Q208 730 238 707T268 646Z" />
<glyph unicode="&#xb4;" horiz-adv-x="259" d="M35 639L84 715Q114 761 132 778T174 795Q199 795 211 786T223 758Q223 743 203 723T136 667L98 639H35Z" />
<glyph unicode="&#xb5;" horiz-adv-x="673" d="M110 -179V475L43 494V540H217V262Q217 198 220 165T232 114Q243 91 264 79T311 66Q365 66 404 102Q425 123 435 149T448 218V475L361 494V540H555V65L632 46V0L467 -10L456 100H452Q423 48 383 19T297 -10Q266 -10
242 7T211 59H207L217 -179H110Z" />
<glyph unicode="&#xb6;" horiz-adv-x="686" d="M483 -96V601H423V-96H343V198H277Q156 198 93 257T30 432Q30 547 94 608T276 670H647V622L563 601V-96H483Z" />
<glyph unicode="&#xb7;" horiz-adv-x="261" d="M63 298Q63 330 81 349T131 368Q162 368 181 349T200 298Q200 267 181 249T131 230Q98 230 81 248T63 298Z" />
<glyph unicode="&#xb8;" horiz-adv-x="254" d="M111 -210Q58 -210 20 -182L48 -143Q77 -163 107 -163Q128 -163 140 -154T153 -131Q153 -116 140 -109T102 -101Q91 -101 80 -102T58 -107L44 -83L121 17H175L130 -57L131 -60Q187 -60 210 -77T234 -126Q234 -166
198 -188T111 -210Z" />
<glyph unicode="&#xb9;" horiz-adv-x="309" d="M129 432V664H69V700Q85 700 110 705T142 720H191V432L239 423V392H69V423L129 432Z" />
<glyph unicode="&#xba;" horiz-adv-x="373" d="M327 579Q327 544 317 512T286 458Q269 440 244 431T185 422Q152 422 127 431T86 457Q67 477 57 507T47 572Q47 608 58 640T88 694Q122 730 188 730Q220 730 245 721T288 695Q307 675 317 645T327 579ZM121 578Q121
520 141 487Q148 475 159 468T188 461Q217 461 234 483Q253 507 253 574Q253 603 249 626T233 665Q225 678 214 684T186 691Q171 691 160 685T141 669Q131 653 126 631T121 578Z" />
<glyph unicode="&#xbb;" horiz-adv-x="539" d="M48 54L181 255L49 458L87 488L291 272V234L86 16L48 54ZM259 54L392 255L260 458L298 488L502 272V234L297 16L259 54Z" />
<glyph unicode="&#xbc;" horiz-adv-x="619" d="M91 -10L477 730H541L155 -10H91ZM363 432V664H303V700Q319 700 344 705T376 720H425V432L473 423V392H303V423L363 432ZM474 39V87H343L338 123L474 328H536V125H585L579 87H536V39L571 30V0H426V30L474 39ZM474
260L387 125H474V260Z" />
<glyph unicode="&#xbd;" horiz-adv-x="645" d="M89 -10L475 730H539L153 -10H89ZM361 432V664H301V700Q317 700 342 705T374 720H423V432L471 423V392H301V423L361 432ZM436 53H555L566 103H603V0H376V30Q376 58 392 80T432 123T480 162T520 204T536 253Q536 274
520 284T480 294Q466 294 454 291T433 280T421 261Q435 261 442 254T450 232Q450 219 442 211T417 203Q398 203 390 213T381 243Q381 282 410 305T488 329Q540 329 569 306T599 242Q599 211 583 188T542 146T494 114T453 85T436 53Z" />
<glyph unicode="&#xbe;" horiz-adv-x="630" d="M102 -10L488 730H552L166 -10H102ZM485 39V87H354L349 123L485 328H547V125H596L590 87H547V39L582 30V0H437V30L485 39ZM485 260L398 125H485V260ZM516 646Q516 616 498 597T448 572V568Q521 554 521 491Q521 449
488 423T399 397Q353 397 325 420T296 481Q296 501 304 511T330 522Q348 522 356 514T364 492Q364 480 358 473T340 465Q343 448 358 441T394 433Q423 433 438 445T454 485Q454 516 434 534T377 552V585Q411 585 432 602T453 650Q453 673 439 685T397 697Q376 697
361 689T342 667Q355 667 363 660T371 640Q371 627 363 618T336 609Q319 609 310 621T300 652Q300 687 328 708T405 730Q456 730 486 707T516 646Z" />
<glyph unicode="&#xbf;" horiz-adv-x="484" d="M240 336H306Q306 295 297 264T266 201T203 129Q168 94 153 62T138 -10Q138 -68 168 -99T255 -130Q291 -130 319 -116T348 -81Q328 -70 317 -51T305 -9Q305 19 324 38T376 57Q410 57 432 30T454 -37Q454 -80 427
-114T352 -169T246 -190Q181 -190 132 -168T55 -107T27 -16Q27 29 49 69T127 160Q171 200 195 228T230 281T240 336ZM340 489Q340 457 322 439T272 420Q241 420 223 438T205 489Q205 520 222 538T272 556Q303 556 321 539T340 489Z" />
<glyph unicode="&#xc0;" horiz-adv-x="723" d="M526 69L470 239H210L152 69L235 48V0H-9V48L73 69L311 730H414L649 69L729 48V0H444V48L526 69ZM342 627L232 302H449L346 627H342ZM354 843L415 767H352L305 795Q278 812 262 823T238 843T231 864Q231 878 241
887T271 897Q286 897 298 893T324 877T354 843Z" />
<glyph unicode="&#xc1;" horiz-adv-x="723" d="M526 69L470 239H210L152 69L235 48V0H-9V48L73 69L311 730H414L649 69L729 48V0H444V48L526 69ZM342 627L232 302H449L346 627H342ZM331 767L392 843Q408 865 421 876T447 892T474 897Q494 897 504 888T515 864Q515
853 508 844T485 823T441 795L394 767H331Z" />
<glyph unicode="&#xc2;" horiz-adv-x="723" d="M526 69L470 239H210L152 69L235 48V0H-9V48L73 69L311 730H414L649 69L729 48V0H444V48L526 69ZM342 627L232 302H449L346 627H342ZM534 769L415 890H310L192 769H255L363 830L471 769H534Z" />
<glyph unicode="&#xc3;" horiz-adv-x="723" d="M526 69L470 239H210L152 69L235 48V0H-9V48L73 69L311 730H414L649 69L729 48V0H444V48L526 69ZM342 627L232 302H449L346 627H342ZM174 769Q180 832 210 863T291 894Q317 894 335 886T370 867T402 848T437 839Q467
839 482 852T502 889H552Q533 758 435 758Q410 758 391 766T356 786T325 805T289 814Q259 814 244 802T224 769H174Z" />
<glyph unicode="&#xc4;" horiz-adv-x="723" d="M526 69L470 239H210L152 69L235 48V0H-9V48L73 69L311 730H414L649 69L729 48V0H444V48L526 69ZM342 627L232 302H449L346 627H342ZM184 833Q184 864 201 881T248 898Q278 898 295 881T313 833Q313 803 296 786T248
769Q218 769 201 786T184 833ZM414 833Q414 864 431 881T478 898Q508 898 525 881T543 833Q543 803 526 786T478 769Q448 769 431 786T414 833Z" />
<glyph unicode="&#xc5;" horiz-adv-x="723" d="M526 69L470 239H210L152 69L235 48V0H-9V48L73 69L311 730H414L649 69L729 48V0H444V48L526 69ZM342 627L232 302H449L346 627H342ZM283 824Q283 858 306 879T363 900Q397 900 420 879T444 824Q444 791 421 771T363
750Q330 750 307 770T283 824ZM339 824Q339 813 345 807T363 800Q375 800 382 806T389 824Q389 836 382 843T363 850Q352 850 346 843T339 824Z" />
<glyph unicode="&#xc6;" horiz-adv-x="1062" d="M852 238H791L774 337H617V65H910L940 223H1008V0H413V48L507 69V239H264L170 69L246 48V0H-11V48L86 69L417 661L336 672V720H986V508H924L893 657H617V402H774L791 502H852V238ZM507 651L490 653L299 302H507V651Z" />
<glyph unicode="&#xc7;" horiz-adv-x="689" d="M373 671Q328 671 294 656T236 609Q207 570 190 508T172 372Q172 301 187 239T229 135Q254 96 292 78T385 59Q561 59 590 228H655Q608 -10 371 -10Q233 -10 151 70Q102 118 76 191T50 353Q50 454 83 536T176 667Q252
730 377 730Q439 730 478 714T555 657L575 720H640V494H569Q555 582 505 626T373 671ZM351 -210Q298 -210 260 -182L288 -143Q317 -163 347 -163Q368 -163 380 -154T393 -131Q393 -116 380 -109T342 -101Q331 -101 320 -102T298 -107L284 -83L361 17H415L370 -57L371
-60Q427 -60 450 -77T474 -126Q474 -166 438 -188T351 -210Z" />
<glyph unicode="&#xc8;" horiz-adv-x="689" d="M480 238H419L401 337H245V65H538L568 223H636V0H41V48L135 69V651L41 672V720H614V508H552L521 657H245V402H401L419 502H480V238ZM363 843L424 767H361L314 795Q287 812 271 823T247 843T240 864Q240 878 250 887T280
897Q295 897 307 893T333 877T363 843Z" />
<glyph unicode="&#xc9;" horiz-adv-x="689" d="M480 238H419L401 337H245V65H538L568 223H636V0H41V48L135 69V651L41 672V720H614V508H552L521 657H245V402H401L419 502H480V238ZM317 767L378 843Q394 865 407 876T433 892T460 897Q480 897 490 888T501 864Q501
853 494 844T471 823T427 795L380 767H317Z" />
<glyph unicode="&#xca;" horiz-adv-x="689" d="M480 238H419L401 337H245V65H538L568 223H636V0H41V48L135 69V651L41 672V720H614V508H552L521 657H245V402H401L419 502H480V238ZM520 769L401 890H296L178 769H241L349 830L457 769H520Z" />
<glyph unicode="&#xcb;" horiz-adv-x="689" d="M480 238H419L401 337H245V65H538L568 223H636V0H41V48L135 69V651L41 672V720H614V508H552L521 657H245V402H401L419 502H480V238ZM169 833Q169 864 186 881T233 898Q263 898 280 881T298 833Q298 803 281 786T233
769Q203 769 186 786T169 833ZM399 833Q399 864 416 881T463 898Q493 898 510 881T528 833Q528 803 511 786T463 769Q433 769 416 786T399 833Z" />
<glyph unicode="&#xcc;" horiz-adv-x="379" d="M245 651V69L339 48V0H41V48L135 69V651L41 672V720H339V672L245 651ZM203 843L264 767H201L154 795Q127 812 111 823T87 843T80 864Q80 878 90 887T120 897Q135 897 147 893T173 877T203 843Z" />
<glyph unicode="&#xcd;" horiz-adv-x="379" d="M245 651V69L339 48V0H41V48L135 69V651L41 672V720H339V672L245 651ZM158 767L219 843Q235 865 248 876T274 892T301 897Q321 897 331 888T342 864Q342 853 335 844T312 823T268 795L221 767H158Z" />
<glyph unicode="&#xce;" horiz-adv-x="379" d="M245 651V69L339 48V0H41V48L135 69V651L41 672V720H339V672L245 651ZM361 769L242 890H137L19 769H82L190 830L298 769H361Z" />
<glyph unicode="&#xcf;" horiz-adv-x="379" d="M245 651V69L339 48V0H41V48L135 69V651L41 672V720H339V672L245 651ZM266 833Q266 864 283 881T330 898Q360 898 377 881T395 833Q395 803 378 786T330 769Q300 769 283 786T266 833ZM496 833Q496 864 513 881T560
898Q590 898 607 881T625 833Q625 803 608 786T560 769Q530 769 513 786T496 833Z" />
<glyph unicode="&#xd0;" horiz-adv-x="776" d="M51 327V399H135V651L51 672V720H397Q546 720 629 636Q676 588 701 518T726 368Q726 284 700 211T626 87Q543 0 388 0H51V48L135 69V327H51ZM245 65H390Q496 65 546 126Q574 161 587 218T601 354Q601 510 546 586Q494
655 380 655H245V399H372V327H245V65Z" />
<glyph unicode="&#xd1;" horiz-adv-x="806" d="M130 69V651L46 672V720H250L611 175V651L527 672V720H770V672L686 651V0H601L205 591V69L289 48V0H46V48L130 69ZM214 769Q220 832 250 863T331 894Q357 894 375 886T410 867T442 848T477 839Q507 839 522 852T542
889H592Q573 758 475 758Q450 758 431 766T396 786T365 805T329 814Q299 814 284 802T264 769H214Z" />
<glyph unicode="&#xd2;" horiz-adv-x="767" d="M718 368Q718 282 692 206T618 77Q576 33 518 12T381 -10Q303 -10 244 11T146 74Q101 121 76 193T50 352Q50 439 76 515T150 643Q192 688 248 709T384 730Q461 730 519 710T621 646Q669 597 693 524T718 368ZM175
372Q175 290 189 227T229 124Q254 87 292 69T387 50Q489 50 538 116Q565 152 579 212T593 354Q593 436 579 497T538 597Q512 635 473 653T380 671Q329 671 292 654T230 605Q175 532 175 372ZM400 843L461 767H398L351 795Q324 812 308 823T284 843T277 864Q277
878 287 887T317 897Q332 897 344 893T370 877T400 843Z" />
<glyph unicode="&#xd3;" horiz-adv-x="767" d="M718 368Q718 282 692 206T618 77Q576 33 518 12T381 -10Q303 -10 244 11T146 74Q101 121 76 193T50 352Q50 439 76 515T150 643Q192 688 248 709T384 730Q461 730 519 710T621 646Q669 597 693 524T718 368ZM175
372Q175 290 189 227T229 124Q254 87 292 69T387 50Q489 50 538 116Q565 152 579 212T593 354Q593 436 579 497T538 597Q512 635 473 653T380 671Q329 671 292 654T230 605Q175 532 175 372ZM352 767L413 843Q429 865 442 876T468 892T495 897Q515 897 525 888T536
864Q536 853 529 844T506 823T462 795L415 767H352Z" />
<glyph unicode="&#xd4;" horiz-adv-x="767" d="M718 368Q718 282 692 206T618 77Q576 33 518 12T381 -10Q303 -10 244 11T146 74Q101 121 76 193T50 352Q50 439 76 515T150 643Q192 688 248 709T384 730Q461 730 519 710T621 646Q669 597 693 524T718 368ZM175
372Q175 290 189 227T229 124Q254 87 292 69T387 50Q489 50 538 116Q565 152 579 212T593 354Q593 436 579 497T538 597Q512 635 473 653T380 671Q329 671 292 654T230 605Q175 532 175 372ZM555 769L436 890H331L213 769H276L384 830L492 769H555Z" />
<glyph unicode="&#xd5;" horiz-adv-x="767" d="M718 368Q718 282 692 206T618 77Q576 33 518 12T381 -10Q303 -10 244 11T146 74Q101 121 76 193T50 352Q50 439 76 515T150 643Q192 688 248 709T384 730Q461 730 519 710T621 646Q669 597 693 524T718 368ZM175
372Q175 290 189 227T229 124Q254 87 292 69T387 50Q489 50 538 116Q565 152 579 212T593 354Q593 436 579 497T538 597Q512 635 473 653T380 671Q329 671 292 654T230 605Q175 532 175 372ZM195 769Q201 832 231 863T312 894Q338 894 356 886T391 867T423 848T458
839Q488 839 503 852T523 889H573Q554 758 456 758Q431 758 412 766T377 786T346 805T310 814Q280 814 265 802T245 769H195Z" />
<glyph unicode="&#xd6;" horiz-adv-x="767" d="M718 368Q718 282 692 206T618 77Q576 33 518 12T381 -10Q303 -10 244 11T146 74Q101 121 76 193T50 352Q50 439 76 515T150 643Q192 688 248 709T384 730Q461 730 519 710T621 646Q669 597 693 524T718 368ZM175
372Q175 290 189 227T229 124Q254 87 292 69T387 50Q489 50 538 116Q565 152 579 212T593 354Q593 436 579 497T538 597Q512 635 473 653T380 671Q329 671 292 654T230 605Q175 532 175 372ZM204 833Q204 864 221 881T268 898Q298 898 315 881T333 833Q333 803
316 786T268 769Q238 769 221 786T204 833ZM434 833Q434 864 451 881T498 898Q528 898 545 881T563 833Q563 803 546 786T498 769Q468 769 451 786T434 833Z" />
<glyph unicode="&#xd7;" horiz-adv-x="506" d="M112 155L56 211L198 352L56 493L112 549L253 407L394 549L450 493L308 352L450 211L394 155L253 297L112 155Z" />
<glyph unicode="&#xd8;" horiz-adv-x="764" d="M68 -10L594 730H675L149 -10H68ZM716 368Q716 282 690 206T616 77Q574 33 516 12T379 -10Q301 -10 242 11T144 74Q99 121 74 193T48 352Q48 439 74 515T148 643Q190 688 246 709T382 730Q459 730 517 710T619 646Q667
597 691 524T716 368ZM173 372Q173 290 187 227T227 124Q252 87 290 69T385 50Q487 50 536 116Q563 152 577 212T591 354Q591 436 577 497T536 597Q510 635 471 653T378 671Q327 671 290 654T228 605Q173 532 173 372Z" />
<glyph unicode="&#xd9;" horiz-adv-x="776" d="M589 264V651L505 672V720H746V672L662 651V243Q662 119 593 54T389 -11Q256 -11 185 55T113 244V651L29 672V720H307V672L223 651V266Q223 49 411 49Q505 49 547 100T589 264ZM422 843L483 767H420L373 795Q346
812 330 823T306 843T299 864Q299 878 309 887T339 897Q354 897 366 893T392 877T422 843Z" />
<glyph unicode="&#xda;" horiz-adv-x="776" d="M589 264V651L505 672V720H746V672L662 651V243Q662 119 593 54T389 -11Q256 -11 185 55T113 244V651L29 672V720H307V672L223 651V266Q223 49 411 49Q505 49 547 100T589 264ZM375 767L436 843Q452 865 465 876T491
892T518 897Q538 897 548 888T559 864Q559 853 552 844T529 823T485 795L438 767H375Z" />
<glyph unicode="&#xdb;" horiz-adv-x="776" d="M589 264V651L505 672V720H746V672L662 651V243Q662 119 593 54T389 -11Q256 -11 185 55T113 244V651L29 672V720H307V672L223 651V266Q223 49 411 49Q505 49 547 100T589 264ZM578 769L459 890H354L236 769H299L407
830L515 769H578Z" />
<glyph unicode="&#xdc;" horiz-adv-x="776" d="M589 264V651L505 672V720H746V672L662 651V243Q662 119 593 54T389 -11Q256 -11 185 55T113 244V651L29 672V720H307V672L223 651V266Q223 49 411 49Q505 49 547 100T589 264ZM228 833Q228 864 245 881T292 898Q322
898 339 881T357 833Q357 803 340 786T292 769Q262 769 245 786T228 833ZM458 833Q458 864 475 881T522 898Q552 898 569 881T587 833Q587 803 570 786T522 769Q492 769 475 786T458 833Z" />
<glyph unicode="&#xdd;" horiz-adv-x="679" d="M359 345L526 651L445 672V720H682V672L600 651L399 282V69L493 48V0H195V48L289 69V266L76 651L-7 672V720H279V672L195 651L359 345ZM328 768L389 844Q405 866 418 877T444 893T471 898Q491 898 501 889T512 865Q512
854 505 845T482 824T438 796L391 768H328Z" />
<glyph unicode="&#xde;" horiz-adv-x="647" d="M394 148H243V69L338 48V0H49V48L133 69V651L38 672V720H327V672L243 651V575H395Q448 575 489 559T557 514Q586 485 601 447T616 366Q616 322 601 282T557 212Q529 183 488 166T394 148ZM243 211H362Q395 211 421
222T462 253Q479 272 487 300T496 360Q496 426 459 468Q442 488 417 500T358 512H243V211Z" />
<glyph unicode="&#xdf;" horiz-adv-x="636" d="M361 424Q361 447 378 466T440 514Q482 540 499 569T517 638Q517 708 466 749T325 790Q220 790 160 726T100 550V65L23 46V0H207V585Q207 665 236 705T320 745Q368 745 395 718T422 639Q422 603 408 578T361 527Q323
499 303 480T276 443T269 401Q269 372 280 350T320 306T404 250Q452 221 476 203T508 169T516 129Q516 88 491 65T424 41Q399 41 377 50T346 75Q362 83 372 100T382 136Q382 157 366 172T321 188Q291 188 275 168T259 116Q259 61 304 26T422 -10Q478 -10 521 11T588
71T613 162Q613 199 601 226T554 280T457 338Q418 359 397 372T369 397T361 424Z" />
<glyph unicode="&#xe0;" horiz-adv-x="541" d="M35 117Q35 197 109 242T350 312Q346 368 339 399T321 450Q308 475 285 488T233 501Q207 501 186 492T158 466Q172 457 178 442T184 413Q184 388 166 372T121 356Q95 356 79 373T62 420Q62 462 91 491T165 535T255
550Q298 550 333 537T393 502Q460 437 460 281V141Q460 92 466 73T495 54H540V19Q462 -10 419 -10Q388 -10 377 12T366 99H362Q331 48 280 19T170 -10Q107 -10 71 24T35 117ZM219 53Q244 53 273 67T322 107Q337 125 345 152T353 216Q353 231 352 247T349 278Q272
262 229 244T167 201T148 140Q148 97 168 75T219 53ZM262 715L311 639H248L210 667Q163 702 143 722T123 758Q123 776 135 785T172 795Q196 795 214 778T262 715Z" />
<glyph unicode="&#xe1;" horiz-adv-x="541" d="M35 117Q35 197 109 242T350 312Q346 368 339 399T321 450Q308 475 285 488T233 501Q207 501 186 492T158 466Q172 457 178 442T184 413Q184 388 166 372T121 356Q95 356 79 373T62 420Q62 462 91 491T165 535T255
550Q298 550 333 537T393 502Q460 437 460 281V141Q460 92 466 73T495 54H540V19Q462 -10 419 -10Q388 -10 377 12T366 99H362Q331 48 280 19T170 -10Q107 -10 71 24T35 117ZM219 53Q244 53 273 67T322 107Q337 125 345 152T353 216Q353 231 352 247T349 278Q272
262 229 244T167 201T148 140Q148 97 168 75T219 53ZM214 639L263 715Q293 761 311 778T353 795Q378 795 390 786T402 758Q402 743 382 723T315 667L277 639H214Z" />
<glyph unicode="&#xe2;" horiz-adv-x="541" d="M35 117Q35 197 109 242T350 312Q346 368 339 399T321 450Q308 475 285 488T233 501Q207 501 186 492T158 466Q172 457 178 442T184 413Q184 388 166 372T121 356Q95 356 79 373T62 420Q62 462 91 491T165 535T255
550Q298 550 333 537T393 502Q460 437 460 281V141Q460 92 466 73T495 54H540V19Q462 -10 419 -10Q388 -10 377 12T366 99H362Q331 48 280 19T170 -10Q107 -10 71 24T35 117ZM219 53Q244 53 273 67T322 107Q337 125 345 152T353 216Q353 231 352 247T349 278Q272
262 229 244T167 201T148 140Q148 97 168 75T219 53ZM397 639L308 790H203L115 639H178L256 725L334 639H397Z" />
<glyph unicode="&#xe3;" horiz-adv-x="541" d="M35 117Q35 197 109 242T350 312Q346 368 339 399T321 450Q308 475 285 488T233 501Q207 501 186 492T158 466Q172 457 178 442T184 413Q184 388 166 372T121 356Q95 356 79 373T62 420Q62 462 91 491T165 535T255
550Q298 550 333 537T393 502Q460 437 460 281V141Q460 92 466 73T495 54H540V19Q462 -10 419 -10Q388 -10 377 12T366 99H362Q331 48 280 19T170 -10Q107 -10 71 24T35 117ZM219 53Q244 53 273 67T322 107Q337 125 345 152T353 216Q353 231 352 247T349 278Q272
262 229 244T167 201T148 140Q148 97 168 75T219 53ZM57 634Q63 697 93 728T174 759Q200 759 218 751T253 732T285 713T320 704Q350 704 365 717T385 754H435Q416 623 318 623Q293 623 274 631T239 651T208 670T172 679Q142 679 127 667T107 634H57Z" />
<glyph unicode="&#xe4;" horiz-adv-x="541" d="M35 117Q35 197 109 242T350 312Q346 368 339 399T321 450Q308 475 285 488T233 501Q207 501 186 492T158 466Q172 457 178 442T184 413Q184 388 166 372T121 356Q95 356 79 373T62 420Q62 462 91 491T165 535T255
550Q298 550 333 537T393 502Q460 437 460 281V141Q460 92 466 73T495 54H540V19Q462 -10 419 -10Q388 -10 377 12T366 99H362Q331 48 280 19T170 -10Q107 -10 71 24T35 117ZM219 53Q244 53 273 67T322 107Q337 125 345 152T353 216Q353 231 352 247T349 278Q272
262 229 244T167 201T148 140Q148 97 168 75T219 53ZM88 700Q88 730 105 747T151 764Q180 764 197 747T215 700Q215 671 198 654T151 637Q122 637 105 654T88 700ZM318 700Q318 730 335 747T381 764Q410 764 427 747T445 700Q445 671 428 654T381 637Q352 637 335
654T318 700Z" />
<glyph unicode="&#xe5;" horiz-adv-x="541" d="M35 117Q35 197 109 242T350 312Q346 368 339 399T321 450Q308 475 285 488T233 501Q207 501 186 492T158 466Q172 457 178 442T184 413Q184 388 166 372T121 356Q95 356 79 373T62 420Q62 462 91 491T165 535T255
550Q298 550 333 537T393 502Q460 437 460 281V141Q460 92 466 73T495 54H540V19Q462 -10 419 -10Q388 -10 377 12T366 99H362Q331 48 280 19T170 -10Q107 -10 71 24T35 117ZM219 53Q244 53 273 67T322 107Q337 125 345 152T353 216Q353 231 352 247T349 278Q272
262 229 244T167 201T148 140Q148 97 168 75T219 53ZM178 713Q178 751 203 777T267 804Q305 804 331 778T358 713Q358 675 332 650T267 624Q229 624 204 649T178 713ZM230 713Q230 697 240 687T267 676Q284 676 295 686T306 713Q306 730 295 741T267 752Q251 752
241 741T230 713Z" />
<glyph unicode="&#xe6;" horiz-adv-x="841" d="M36 117Q36 195 109 241T351 312Q347 369 340 400T322 450Q307 476 284 488T231 501Q206 501 186 491T158 464Q171 454 178 439T185 409Q185 384 168 369T123 354Q96 354 80 371T63 420Q63 462 92 491T165 535T255
550Q308 550 351 525T408 447H413Q433 498 478 524T580 550Q687 550 743 487T800 311Q800 301 800 291T797 261H448Q448 224 453 195T468 143Q486 100 520 81T595 62Q642 62 681 81T751 135L792 105Q768 73 737 47T666 5T571 -10Q504 -10 454 17T375 99H368Q337
48 287 19T171 -10Q108 -10 72 24T36 117ZM571 491Q515 491 485 448T449 315H689V346Q689 416 659 453T571 491ZM223 53Q248 53 275 67T323 108Q338 127 346 153T354 215Q354 232 353 247T350 277Q273 261 229 244T167 201T149 138Q149 97 168 75T223 53Z" />
<glyph unicode="&#xe7;" horiz-adv-x="539" d="M301 550Q361 550 405 531T474 476T499 394Q499 354 481 333T430 312Q398 312 382 330T366 376Q366 401 379 419T416 444Q402 469 374 481T307 494Q231 494 195 443T158 277Q158 226 164 192T184 134Q203 100 233
81T306 62Q351 62 394 82T467 140L505 110Q463 48 408 19T282 -10Q211 -10 160 18T79 102Q43 169 43 264Q43 351 74 415T164 514T301 550ZM258 -210Q205 -210 167 -182L195 -143Q224 -163 254 -163Q275 -163 287 -154T300 -131Q300 -116 287 -109T249 -101Q238
-101 227 -102T205 -107L191 -83L268 17H322L277 -57L278 -60Q334 -60 357 -77T381 -126Q381 -166 345 -188T258 -210Z" />
<glyph unicode="&#xe8;" horiz-adv-x="548" d="M504 261H155Q155 190 175 143Q194 101 227 82T303 62Q349 62 389 81T461 137L500 107Q465 59 412 25T277 -10Q207 -10 154 19T73 106Q58 137 51 175T44 256Q44 396 108 473T286 550Q391 550 449 487T507 311Q507
301 507 292T504 261ZM282 491Q167 491 156 315H396V346Q396 416 366 453T282 491ZM293 715L342 639H279L241 667Q194 702 174 722T154 758Q154 776 166 785T203 795Q227 795 245 778T293 715Z" />
<glyph unicode="&#xe9;" horiz-adv-x="548" d="M504 261H155Q155 190 175 143Q194 101 227 82T303 62Q349 62 389 81T461 137L500 107Q465 59 412 25T277 -10Q207 -10 154 19T73 106Q58 137 51 175T44 256Q44 396 108 473T286 550Q391 550 449 487T507 311Q507
301 507 292T504 261ZM282 491Q167 491 156 315H396V346Q396 416 366 453T282 491ZM250 639L299 715Q329 761 347 778T389 795Q414 795 426 786T438 758Q438 743 418 723T351 667L313 639H250Z" />
<glyph unicode="&#xea;" horiz-adv-x="548" d="M504 261H155Q155 190 175 143Q194 101 227 82T303 62Q349 62 389 81T461 137L500 107Q465 59 412 25T277 -10Q207 -10 154 19T73 106Q58 137 51 175T44 256Q44 396 108 473T286 550Q391 550 449 487T507 311Q507
301 507 292T504 261ZM282 491Q167 491 156 315H396V346Q396 416 366 453T282 491ZM432 639L343 790H238L150 639H213L291 725L369 639H432Z" />
<glyph unicode="&#xeb;" horiz-adv-x="548" d="M504 261H155Q155 190 175 143Q194 101 227 82T303 62Q349 62 389 81T461 137L500 107Q465 59 412 25T277 -10Q207 -10 154 19T73 106Q58 137 51 175T44 256Q44 396 108 473T286 550Q391 550 449 487T507 311Q507
301 507 292T504 261ZM282 491Q167 491 156 315H396V346Q396 416 366 453T282 491ZM106 700Q106 730 123 747T169 764Q198 764 215 747T233 700Q233 671 216 654T169 637Q140 637 123 654T106 700ZM336 700Q336 730 353 747T399 764Q428 764 445 747T463 700Q463
671 446 654T399 637Q370 637 353 654T336 700Z" />
<glyph unicode="&#xec;" horiz-adv-x="318" d="M111 475L34 494V540H218V65L295 46V0H34V46L111 65V475ZM404 715L453 639H390L352 667Q305 702 285 722T265 758Q265 776 277 785T314 795Q338 795 356 778T404 715Z" />
<glyph unicode="&#xed;" horiz-adv-x="318" d="M111 475L34 494V540H218V65L295 46V0H34V46L111 65V475ZM132 639L181 715Q211 761 229 778T271 795Q296 795 308 786T320 758Q320 743 300 723T233 667L195 639H132Z" />
<glyph unicode="&#xee;" horiz-adv-x="318" d="M111 475L34 494V540H218V65L295 46V0H34V46L111 65V475ZM561 639L472 790H367L279 639H342L420 725L498 639H561Z" />
<glyph unicode="&#xef;" horiz-adv-x="318" d="M111 475L34 494V540H218V65L295 46V0H34V46L111 65V475ZM242 700Q242 730 259 747T305 764Q334 764 351 747T369 700Q369 671 352 654T305 637Q276 637 259 654T242 700ZM472 700Q472 730 489 747T535 764Q564 764
581 747T599 700Q599 671 582 654T535 637Q506 637 489 654T472 700Z" />
<glyph unicode="&#xf0;" horiz-adv-x="573" d="M146 210Q146 289 179 328T273 368Q338 368 370 329T402 210Q402 131 370 91T273 50Q212 50 179 90T146 210ZM423 351H419Q391 388 344 409T242 430Q179 430 131 403T56 326T29 211Q29 110 92 50T265 -10Q392 -10
460 69T528 294Q528 354 515 408T473 514T397 624L471 657L444 710L355 671Q337 689 326 700T306 719T288 733L227 711Q245 695 261 678T291 643L171 590L196 535L329 593Q369 546 394 483T423 351Z" />
<glyph unicode="&#xf1;" horiz-adv-x="661" d="M111 65V475L34 494V540H188L210 440H214Q244 491 295 520T404 550Q487 550 527 496Q547 468 555 418T564 281V65L641 46V0H390V46L457 65V278Q457 341 454 373T441 425Q430 450 409 461T358 473Q303 473 263 438Q222
400 218 322V65L285 46V0H34V46L111 65ZM161 634Q167 697 197 728T278 759Q304 759 322 751T357 732T389 713T424 704Q454 704 469 717T489 754H539Q520 623 422 623Q397 623 378 631T343 651T312 670T276 679Q246 679 231 667T211 634H161Z" />
<glyph unicode="&#xf2;" horiz-adv-x="586" d="M543 273Q543 209 524 151T470 55Q439 21 394 6T291 -10Q234 -10 190 5T114 54Q80 91 62 146T43 265Q43 330 62 388T116 485Q149 519 192 534T294 550Q351 550 396 535T472 486Q507 449 525 393T543 273ZM171 215Q175
168 189 135T225 82Q247 66 270 60T323 60Q380 77 403 149Q415 188 418 233T415 326Q411 372 397 405T361 458Q340 475 316 480T262 480Q205 463 184 391Q160 313 171 215ZM277 715L326 639H263L225 667Q178 702 158 722T138 758Q138 776 150 785T187 795Q211 795
229 778T277 715Z" />
<glyph unicode="&#xf3;" horiz-adv-x="586" d="M543 273Q543 209 524 151T470 55Q439 21 394 6T291 -10Q234 -10 190 5T114 54Q80 91 62 146T43 265Q43 330 62 388T116 485Q149 519 192 534T294 550Q351 550 396 535T472 486Q507 449 525 393T543 273ZM171 215Q175
168 189 135T225 82Q247 66 270 60T323 60Q380 77 403 149Q415 188 418 233T415 326Q411 372 397 405T361 458Q340 475 316 480T262 480Q205 463 184 391Q160 313 171 215ZM261 639L310 715Q340 761 358 778T400 795Q425 795 437 786T449 758Q449 743 429 723T362
667L324 639H261Z" />
<glyph unicode="&#xf4;" horiz-adv-x="586" d="M543 273Q543 209 524 151T470 55Q439 21 394 6T291 -10Q234 -10 190 5T114 54Q80 91 62 146T43 265Q43 330 62 388T116 485Q149 519 192 534T294 550Q351 550 396 535T472 486Q507 449 525 393T543 273ZM171 215Q175
168 189 135T225 82Q247 66 270 60T323 60Q380 77 403 149Q415 188 418 233T415 326Q411 372 397 405T361 458Q340 475 316 480T262 480Q205 463 184 391Q160 313 171 215ZM434 639L345 790H240L152 639H215L293 725L371 639H434Z" />
<glyph unicode="&#xf5;" horiz-adv-x="586" d="M543 273Q543 209 524 151T470 55Q439 21 394 6T291 -10Q234 -10 190 5T114 54Q80 91 62 146T43 265Q43 330 62 388T116 485Q149 519 192 534T294 550Q351 550 396 535T472 486Q507 449 525 393T543 273ZM171 215Q175
168 189 135T225 82Q247 66 270 60T323 60Q380 77 403 149Q415 188 418 233T415 326Q411 372 397 405T361 458Q340 475 316 480T262 480Q205 463 184 391Q160 313 171 215ZM104 634Q110 697 140 728T221 759Q247 759 265 751T300 732T332 713T367 704Q397 704 412
717T432 754H482Q463 623 365 623Q340 623 321 631T286 651T255 670T219 679Q189 679 174 667T154 634H104Z" />
<glyph unicode="&#xf6;" horiz-adv-x="586" d="M543 273Q543 209 524 151T470 55Q439 21 394 6T291 -10Q234 -10 190 5T114 54Q80 91 62 146T43 265Q43 330 62 388T116 485Q149 519 192 534T294 550Q351 550 396 535T472 486Q507 449 525 393T543 273ZM171 215Q175
168 189 135T225 82Q247 66 270 60T323 60Q380 77 403 149Q415 188 418 233T415 326Q411 372 397 405T361 458Q340 475 316 480T262 480Q205 463 184 391Q160 313 171 215ZM115 700Q115 730 132 747T178 764Q207 764 224 747T242 700Q242 671 225 654T178 637Q149
637 132 654T115 700ZM345 700Q345 730 362 747T408 764Q437 764 454 747T472 700Q472 671 455 654T408 637Q379 637 362 654T345 700Z" />
<glyph unicode="&#xf7;" horiz-adv-x="542" d="M52 323V382H490V323H52ZM210 174Q210 205 227 222T275 240Q305 240 322 222T339 174Q339 144 322 127T274 110Q210 110 210 174ZM210 528Q210 559 227 576T275 594Q305 594 322 576T339 528Q339 498 322 481T274
464Q210 464 210 528Z" />
<glyph unicode="&#xf8;" horiz-adv-x="586" d="M93 -60L427 582H501L167 -60H93ZM543 273Q543 209 524 151T470 55Q439 21 394 6T291 -10Q234 -10 190 5T114 54Q80 91 62 146T43 265Q43 330 62 388T116 485Q149 519 192 534T294 550Q351 550 396 535T472 486Q507
449 525 393T543 273ZM171 215Q175 168 189 135T225 82Q247 66 270 60T323 60Q380 77 403 149Q415 188 418 233T415 326Q411 372 397 405T361 458Q340 475 316 480T262 480Q205 463 184 391Q160 313 171 215Z" />
<glyph unicode="&#xf9;" horiz-adv-x="639" d="M201 540V262Q201 198 204 166T216 115Q226 91 247 79T293 66Q320 66 344 76T387 103Q428 140 432 218V475L345 494V540H539V65L616 46V0L451 -10L440 100H436Q407 49 357 20T250 -10Q212 -10 181 4T131 44Q112 72
103 123T94 259V475L27 494V540H201ZM298 715L347 639H284L246 667Q199 702 179 722T159 758Q159 776 171 785T208 795Q232 795 250 778T298 715Z" />
<glyph unicode="&#xfa;" horiz-adv-x="639" d="M201 540V262Q201 198 204 166T216 115Q226 91 247 79T293 66Q320 66 344 76T387 103Q428 140 432 218V475L345 494V540H539V65L616 46V0L451 -10L440 100H436Q407 49 357 20T250 -10Q212 -10 181 4T131 44Q112 72
103 123T94 259V475L27 494V540H201ZM282 639L331 715Q361 761 379 778T421 795Q446 795 458 786T470 758Q470 743 450 723T383 667L345 639H282Z" />
<glyph unicode="&#xfb;" horiz-adv-x="639" d="M201 540V262Q201 198 204 166T216 115Q226 91 247 79T293 66Q320 66 344 76T387 103Q428 140 432 218V475L345 494V540H539V65L616 46V0L451 -10L440 100H436Q407 49 357 20T250 -10Q212 -10 181 4T131 44Q112 72
103 123T94 259V475L27 494V540H201ZM455 639L366 790H261L173 639H236L314 725L392 639H455Z" />
<glyph unicode="&#xfc;" horiz-adv-x="639" d="M201 540V262Q201 198 204 166T216 115Q226 91 247 79T293 66Q320 66 344 76T387 103Q428 140 432 218V475L345 494V540H539V65L616 46V0L451 -10L440 100H436Q407 49 357 20T250 -10Q212 -10 181 4T131 44Q112 72
103 123T94 259V475L27 494V540H201ZM136 700Q136 730 153 747T199 764Q228 764 245 747T263 700Q263 671 246 654T199 637Q170 637 153 654T136 700ZM366 700Q366 730 383 747T429 764Q458 764 475 747T493 700Q493 671 476 654T429 637Q400 637 383 654T366 700Z"
/>
<glyph unicode="&#xfd;" horiz-adv-x="593" d="M519 475L355 24Q325 -53 301 -100T247 -169T171 -190Q124 -190 91 -165T57 -102Q57 -72 74 -52T120 -32Q145 -32 159 -44T173 -81Q173 -93 166 -107T145 -129Q147 -139 157 -142T174 -146Q188 -146 200 -140T225
-112T255 -44L267 -7L62 475L2 494V540H236L244 494L173 475L313 98H317L438 475L380 494V540H580V494L519 475ZM255 639L304 715Q334 761 352 778T394 795Q419 795 431 786T443 758Q443 743 423 723T356 667L318 639H255Z" />
<glyph unicode="&#xfe;" horiz-adv-x="605" d="M561 275Q561 213 542 158T490 65Q434 0 329 0Q236 0 187 75V-115L284 -134V-180H3V-134L80 -115V715L3 734V780H187V482Q241 550 337 550Q446 550 497 487Q528 449 544 395T561 275ZM187 274Q187 218 195 178T222
110Q239 82 263 70T317 57Q349 57 373 69T413 104Q429 127 437 169T446 267Q446 325 438 368T412 440Q396 468 372 480T316 493Q248 493 222 447Q187 389 187 274Z" />
<glyph unicode="&#xff;" horiz-adv-x="593" d="M519 475L355 24Q325 -53 301 -100T247 -169T171 -190Q124 -190 91 -165T57 -102Q57 -72 74 -52T120 -32Q145 -32 159 -44T173 -81Q173 -93 166 -107T145 -129Q147 -139 157 -142T174 -146Q188 -146 200 -140T225
-112T255 -44L267 -7L62 475L2 494V540H236L244 494L173 475L313 98H317L438 475L380 494V540H580V494L519 475ZM137 700Q137 730 154 747T200 764Q229 764 246 747T264 700Q264 671 247 654T200 637Q171 637 154 654T137 700ZM367 700Q367 730 384 747T430 764Q459
764 476 747T494 700Q494 671 477 654T430 637Q401 637 384 654T367 700Z" />
<glyph unicode="&#x2013;" horiz-adv-x="617" d="M62 244V312H556V244H62Z" />
<glyph unicode="&#x2014;" horiz-adv-x="926" d="M62 244V312H863V244H62Z" />
<glyph unicode="&#x2018;" horiz-adv-x="244" d="M119 485Q85 485 65 509T45 573Q45 627 76 673T174 760L199 731Q159 698 135 669T108 616L112 613Q117 621 136 621Q158 621 173 603T189 555Q189 524 170 505T119 485Z" />
<glyph unicode="&#x2019;" horiz-adv-x="243" d="M130 760Q164 760 184 736T204 672Q204 618 173 572T75 485L50 514Q90 547 114 576T141 629L137 632Q132 624 113 624Q91 624 76 642T60 690Q60 721 79 740T130 760Z" />
<glyph unicode="&#x201a;" horiz-adv-x="249" d="M122 123Q156 123 176 99T196 35Q196 -19 165 -65T67 -152L42 -123Q82 -90 106 -61T133 -8L129 -5Q124 -13 105 -13Q83 -13 68 5T52 53Q52 84 71 103T122 123Z" />
<glyph unicode="&#x201c;" horiz-adv-x="444" d="M119 485Q85 485 65 509T45 573Q45 627 76 673T174 760L199 731Q159 698 135 669T108 616L112 613Q117 621 136 621Q158 621 173 603T189 555Q189 524 170 505T119 485ZM319 485Q285 485 265 509T245 573Q245 627
276 673T374 760L399 731Q359 698 335 669T308 616L312 613Q317 621 336 621Q358 621 373 603T389 555Q389 524 370 505T319 485Z" />
<glyph unicode="&#x201d;" horiz-adv-x="443" d="M130 760Q164 760 184 736T204 672Q204 618 173 572T75 485L50 514Q90 547 114 576T141 629L137 632Q132 624 113 624Q91 624 76 642T60 690Q60 721 79 740T130 760ZM330 760Q364 760 384 736T404 672Q404 618
373 572T275 485L250 514Q290 547 314 576T341 629L337 632Q332 624 313 624Q291 624 276 642T260 690Q260 721 279 740T330 760Z" />
<glyph unicode="&#x201e;" horiz-adv-x="449" d="M122 375Q156 375 176 351T196 287Q196 233 165 187T67 100L42 129Q82 162 106 191T133 244L129 247Q124 239 105 239Q83 239 68 257T52 305Q52 336 71 355T122 375ZM322 119Q356 119 376 95T396 31Q396 -23 365
-69T267 -156L242 -127Q282 -94 306 -65T333 -12L329 -9Q324 -17 305 -17Q283 -17 268 1T252 49Q252 80 271 99T322 119Z" />
<glyph unicode="&#x2022;" horiz-adv-x="402" d="M78 343Q78 401 111 435T201 469Q258 469 291 435T325 343Q325 286 292 254T201 221Q142 221 110 252T78 343Z" />
<glyph unicode="&#x2039;" horiz-adv-x="329" d="M148 255L281 54L243 16L38 234V272L242 488L280 458L148 255Z" />
<glyph unicode="&#x203a;" horiz-adv-x="329" d="M48 54L181 255L49 458L87 488L291 272V234L86 16L48 54Z" />
</font>
</defs>
</svg>
