<?xml version="1.0" standalone="no"?>
<!DOCTYPE svg PUBLIC "-//W3C//DTD SVG 1.1//EN" "http://www.w3.org/Graphics/SVG/1.1/DTD/svg11.dtd">
<svg xmlns="http://www.w3.org/2000/svg">
<defs >
<font id="SourceSerif4" horiz-adv-x="558" ><font-face
    font-family="Source Serif 4 Light"
    units-per-em="1000"
    panose-1="2 4 6 3 5 4 5 2 2 4"
    ascent="1036"
    descent="-335"
    alphabetic="0" />
<glyph unicode=" " horiz-adv-x="244" />
<glyph unicode="!" horiz-adv-x="263" d="M132 -12Q112 -12 99 2T85 35Q85 54 98 67T132 81Q152 81 165 68T178 35Q178 16 165 2T132 -12ZM132 691Q148 691 157 681T166 650Q166 635 165 610T163 552T159 477T154 388L147 189H116L109 388Q106 435 104 476T101
551T98 610T96 650Q96 671 105 681T132 691Z" />
<glyph unicode="&quot;" horiz-adv-x="339" d="M81 745Q97 745 105 735T114 703Q114 691 113 672T110 631T106 586T102 540L96 454H67L60 540Q58 562 56 585T52 631T49 672T48 703Q48 724 56 734T81 745ZM258 745Q274 745 282 735T291 703Q291 691 290 672T287
631T283 586T279 540L273 454H244L237 540Q235 562 233 585T229 631T226 672T225 703Q225 724 233 734T258 745Z" />
<glyph unicode="#" horiz-adv-x="516" d="M88 0L186 651H221L123 0H88ZM24 245H459V197H24V245ZM493 422H57V469H493V422ZM290 0L388 651H423L325 0H290Z" />
<glyph unicode="$" horiz-adv-x="514" d="M252 -12Q198 -12 158 5T93 53T58 127Q62 139 70 146T92 153Q101 153 109 149T123 137T133 113L155 25L114 62Q134 48 154 39T197 26T250 21Q299 21 333 38T385 85T403 154Q403 187 391 212T350 259T272 301L239 315Q187
336 152 361T98 419T79 499Q79 550 103 587T169 643T266 663Q314 663 351 647T414 599T448 526Q446 514 438 507T416 499Q406 499 398 503T384 516T374 540L352 627L393 591Q373 605 355 613T317 626T271 630Q204 630 167 597T129 507Q129 457 160 424T258 363L285
352Q347 328 383 300T436 238T453 161Q453 108 428 69T358 9T252 -12ZM248 -115V330H281V-115H248ZM249 330V759H281V330H249Z" />
<glyph unicode="%" horiz-adv-x="897" d="M182 256Q141 256 109 279T59 350T40 468Q40 540 58 587T109 659T182 683Q223 683 255 660T305 589T324 470Q324 399 306 352T255 280T182 256ZM182 284Q210 284 230 303T261 363T272 469Q272 535 261 576T230 636T182
655Q155 655 135 636T103 576T92 469Q92 404 103 363T134 303T182 284ZM224 -24L198 -5L672 672L698 653L224 -24ZM715 -9Q674 -9 642 14T592 85T573 203Q573 275 591 322T642 394T715 418Q756 418 788 395T838 324T857 205Q857 134 839 87T788 15T715 -9ZM715
19Q743 19 763 38T794 98T805 204Q805 270 794 311T763 371T715 390Q688 390 668 371T636 311T625 204Q625 139 636 98T667 38T715 19Z" />
<glyph unicode="&amp;" horiz-adv-x="718" d="M250 -12Q189 -12 142 12T68 78T42 172Q42 221 60 259T115 328T205 383V400L229 374Q186 348 156 319T111 256T96 183Q96 142 116 107T173 50T263 28Q324 28 372 52T460 118L480 93H466Q442 64 412 40T343 2T250 -12ZM488
109L465 132H479Q506 175 523 217T552 307T569 417H609Q601 348 587 296T549 200T488 109ZM579 384L477 389V424H680V389L593 384H579ZM614 -7Q591 -7 573 -4T541 8T512 32Q459 91 411 144T314 251Q293 275 274 295T236 337T193 385Q170 412 152 438T124 491T114
550Q114 593 134 624T188 672T266 689Q332 689 370 654T408 562Q408 505 368 463T252 385V372L232 395Q293 434 328 472T363 561Q363 606 337 631T265 657Q220 657 190 630T160 555Q160 533 167 512T188 468T226 420Q247 397 266 376T304 334T344 289Q371 260 400
229T460 164T526 94T597 17L553 41L679 31L678 -1Q664 -3 648 -5T614 -7Z" />
<glyph unicode="&apos;" horiz-adv-x="162" d="M81 745Q97 745 105 735T114 703Q114 691 113 672T110 631T106 586T102 540L96 454H67L60 540Q58 562 56 585T52 631T49 672T48 703Q48 724 56 734T81 745Z" />
<glyph unicode="(" horiz-adv-x="343" d="M144 278Q144 193 160 118T212 -32T307 -189L285 -207Q220 -134 177 -58T113 102T91 278Q91 372 112 455T177 614T285 764L307 746Q248 664 213 590T161 440T144 278Z" />
<glyph unicode=")" horiz-adv-x="343" d="M199 279Q199 364 183 439T131 589T36 746L58 764Q123 691 166 615T230 455T252 279Q252 185 231 102T166 -57T58 -207L36 -189Q95 -107 130 -33T182 117T199 279Z" />
<glyph unicode="*" horiz-adv-x="449" d="M217 554L209 614Q204 654 201 681T197 725Q197 740 204 748T225 756Q237 756 245 748T253 725Q253 709 249 682T240 614L232 554H217ZM210 538L150 549Q112 556 85 561T41 571Q27 576 22 585T21 607Q25 619 35 624T59
625Q74 620 99 608T160 578L215 552L210 538ZM223 526L194 472Q176 438 163 413T140 375Q131 363 120 362T99 367Q89 374 87 385T94 409Q103 421 122 441T170 491L211 534L223 526ZM239 535L281 491Q308 462 327 442T356 409Q365 396 363 385T351 367Q341 360 330
361T310 375Q301 388 288 413T256 472L227 526L239 535ZM235 552L290 579Q326 596 350 608T391 624Q405 630 415 625T429 607Q433 595 428 585T408 571Q394 566 366 561T300 549L240 538L235 552Z" />
<glyph unicode="+" horiz-adv-x="534" d="M245 89V572H289V89H245ZM496 311H38V352H496V311Z" />
<glyph unicode="," horiz-adv-x="299" d="M66 -167L55 -142Q89 -123 111 -105T146 -63T163 -3L170 -25L144 -9Q125 -4 115 7T105 37Q105 56 117 69T150 82Q163 82 172 79T190 68Q194 57 196 44T198 13Q198 -28 182 -62T136 -122T66 -167Z" />
<glyph unicode="-" horiz-adv-x="317" d="M40 229V273H277V229H40Z" />
<glyph unicode="." horiz-adv-x="299" d="M150 -12Q128 -12 115 2T101 36Q101 56 114 70T150 84Q171 84 184 70T198 36Q198 16 185 2T150 -12Z" />
<glyph unicode="/" horiz-adv-x="314" d="M3 -160L270 710H311L45 -160H3Z" />
<glyph unicode="0" horiz-adv-x="522" d="M261 -12Q200 -12 152 25T78 137T51 323Q51 435 77 510T152 624T261 663Q323 663 370 626T445 513T472 326Q472 214 445 139T371 26T261 -12ZM261 22Q296 22 323 40T371 96T402 190T413 325Q413 402 403 459T372 554T324
610T261 629Q227 629 199 611T151 554T120 459T109 325Q109 248 120 191T151 97T199 41T261 22Z" />
<glyph unicode="1" horiz-adv-x="522" d="M91 0V34L256 41H290L446 34V0H91ZM244 0Q244 43 244 86T245 172T245 258V603L94 572V605L282 659L303 654L301 437V258Q301 215 301 172T301 86T302 0H244Z" />
<glyph unicode="2" horiz-adv-x="522" d="M317 0V43Q364 92 409 139T492 228Q540 281 573 325T625 411T643 495Q643 559 605 594T500 630Q464 630 436 622T376 590L414 626L388 538Q384 523 379 514T366 500T347 495Q332 495 324 503T313 523Q324 566 351 597T419
645T510 663Q569 663 612 644T678 588T701 498Q701 452 682 411T624 322T524 211Q502 189 475 162T415 105T348 42L359 70V51H729V0H317Z" />
<glyph unicode="3" horiz-adv-x="522" d="M245 -12Q169 -12 119 18T53 110Q56 121 64 128T87 136Q103 136 112 126T127 95L150 17L113 52Q138 36 168 29T240 21Q295 21 332 40T389 93T409 174Q409 221 389 254T327 305T221 323H180V358H218Q274 358 312 376T370
426T390 501Q390 540 374 569T327 614T248 630Q215 630 187 623T129 600L166 630L145 556Q140 535 131 526T106 517Q93 517 85 523T73 542Q84 583 110 610T175 650T258 663Q315 663 357 644T423 589T447 506Q447 461 425 426T361 368T261 340V341Q326 338 372 319T441
263T465 173Q465 118 438 77T362 12T245 -12Z" />
<glyph unicode="4" horiz-adv-x="522" d="M585 -18V184L586 195V599H567L595 613L459 400L310 201L319 229V211H759V168H284V205L598 659H640V-18H585Z" />
<glyph unicode="5" horiz-adv-x="522" d="M234 -12Q157 -12 109 17T44 103Q47 115 56 122T78 130Q94 130 103 121T120 90L147 17L110 46Q140 33 167 27T231 21Q289 21 329 41T392 99T414 191Q414 246 394 283T336 338T247 356Q209 356 179 350T123 330L95 341L118
651H453V601H133L154 630L133 352L125 354Q154 375 187 384T258 394Q322 394 369 371T443 304T470 195Q470 132 441 86T359 14T234 -12Z" />
<glyph unicode="6" horiz-adv-x="522" d="M520 -12Q457 -12 409 18T334 109T307 258Q307 332 334 400T413 523T539 615T707 663L714 636Q626 621 561 586T451 499T385 387T363 257Q363 177 384 125T440 47T522 21Q565 21 598 42T651 102T671 196Q671 274 632 316T525
358Q475 358 435 337T355 273L346 302L360 300Q393 347 436 372T540 398Q597 398 638 374T703 306T727 199Q727 151 711 112T667 46T601 3T520 -12Z" />
<glyph unicode="7" horiz-adv-x="522" d="M154 0L151 10L439 615L435 580L433 601H53V651H466V617L212 0H154Z" />
<glyph unicode="8" horiz-adv-x="522" d="M516 -12Q451 -12 404 7T331 61T306 145Q306 189 325 222T382 282T478 328L483 341L518 328Q459 301 424 275T374 218T358 150Q358 111 377 82T431 37T517 21Q592 21 634 55T676 146Q676 181 660 209T604 264T497 318Q442
342 406 369T351 430T332 505Q332 551 355 587T421 643T518 663Q576 663 616 644T678 591T700 511Q700 476 684 445T635 387T550 340L546 327L513 341Q585 376 617 416T650 509Q650 543 635 570T591 614T518 630Q478 630 448 615T400 574T383 512Q383 479 397 452T444
401T536 350Q601 323 643 295T707 233T728 152Q728 103 702 66T629 9T516 -12Z" />
<glyph unicode="9" horiz-adv-x="522" d="M337 -15L329 12Q415 33 478 70T583 157T646 266T667 390Q667 474 646 527T590 605T510 630Q467 630 433 609T378 550T358 458Q358 406 378 370T434 315T516 296Q566 296 605 317T680 377L688 353L675 355Q650 310 607
284T500 257Q443 257 398 280T328 348T302 454Q302 501 318 539T363 605T430 648T512 663Q573 663 621 634T696 546T724 396Q724 324 699 258T625 136T504 42T337 -15Z" />
<glyph unicode=":" horiz-adv-x="299" d="M150 -12Q128 -12 115 2T101 36Q101 56 114 70T150 84Q171 84 184 70T198 36Q198 16 185 2T150 -12ZM150 377Q128 377 115 391T101 425Q101 445 114 459T150 473Q171 473 184 459T198 425Q198 405 185 391T150 377Z" />
<glyph unicode=";" horiz-adv-x="299" d="M66 -167L55 -142Q89 -123 111 -105T146 -63T163 -3L170 -25L144 -9Q125 -4 115 7T105 37Q105 56 117 69T150 82Q163 82 172 79T190 68Q194 57 196 44T198 13Q198 -28 182 -62T136 -122T66 -167ZM150 377Q128 377 115
391T101 425Q101 445 114 459T150 473Q171 473 184 459T198 425Q198 405 185 391T150 377Z" />
<glyph unicode="&lt;" horiz-adv-x="534" d="M64 315V349L448 577L470 540L92 321V343L470 123L448 87L64 315Z" />
<glyph unicode="=" horiz-adv-x="534" d="M496 467H38V508H496V467ZM496 411H38V452H496V411Z" />
<glyph unicode="&gt;" horiz-adv-x="534" d="M470 352V318L86 90L64 127L442 346V324L64 544L86 580L470 352Z" />
<glyph unicode="?" horiz-adv-x="382" d="M142 -12Q122 -12 109 2T96 35Q96 54 109 67T142 81Q162 81 175 68T189 35Q189 16 176 2T142 -12ZM334 491Q334 435 307 400T230 338L208 326Q176 309 165 294T154 244L157 185H127L120 218Q116 241 113 255T110 284Q110
310 126 328T184 368L209 380Q253 405 274 432T295 500Q295 545 267 580T180 650L272 601L121 613Q94 615 83 626T71 653Q71 669 81 678T105 692Q151 682 192 665T266 624T316 566T334 491Z" />
<glyph unicode="@" horiz-adv-x="822" d="M342 55Q313 55 288 69T249 112T234 184Q234 223 245 263T278 341T327 407T388 454T459 471Q491 471 513 459T554 418L535 386Q519 412 500 424T454 437Q419 437 387 415T332 357T295 279T281 197Q281 145 302 120T360
94Q390 94 419 112T491 177L495 149H484Q464 121 443 100T397 67T342 55ZM567 54Q536 54 516 65T487 97T479 147L475 152L528 421L560 465L581 460L524 171Q518 142 522 123T540 95T578 86Q608 86 637 103T692 152T732 231T748 339Q748 428 712 493T612 594T463
630Q380 630 310 596T187 503T107 366T78 203Q78 124 102 64T170 -38T271 -101T395 -123Q447 -123 487 -114T564 -88L576 -113Q534 -134 488 -144T385 -155Q310 -155 246 -132T135 -64T62 46T36 196Q36 273 56 342T115 470T207 572T326 639T468 663Q564 663 635
622T747 508T787 339Q787 270 768 217T716 128T645 73T567 54Z" />
<glyph unicode="A" horiz-adv-x="701" d="M17 0V35L113 40H130L238 35V0H17ZM88 0L322 678H369L606 0H545L331 627H334L306 534L129 0H88ZM192 231V267H487V231H192ZM425 0V35L549 40H569L686 35V0H425Z" />
<glyph unicode="B" horiz-adv-x="629" d="M49 0V35L171 40H181V0H49ZM155 0Q156 51 156 103T156 206T156 307V367Q156 418 156 469T156 572T155 674H216Q215 623 215 572T214 469T214 364V323Q214 266 214 212T214 104T216 0H155ZM190 0V36H313Q417 36 469 75T521
185Q521 257 469 295T303 333H186V368H297Q362 368 404 386T466 436T487 510Q487 550 469 578T411 622T308 637H190V674H322Q395 674 444 654T519 599T544 514Q544 468 521 433T452 378T340 353L343 351Q420 349 473 330T553 274T581 185Q581 144 565 110T516 52T435
14T322 0H190ZM49 639V674H181V634H171L49 639Z" />
<glyph unicode="C" horiz-adv-x="672" d="M405 -15Q329 -15 266 10T156 80T84 191T59 336Q59 416 85 481T157 592T267 664T406 689Q466 689 515 676T606 639L610 496H571L549 640L587 634V597Q547 625 505 638T409 651Q325 651 260 614T159 506T122 337Q122 238
158 168T259 61T408 23Q465 23 511 35T594 73V39L558 35L579 179H619L615 34Q576 11 524 -2T405 -15Z" />
<glyph unicode="D" horiz-adv-x="739" d="M49 0V35L171 40H181V0H49ZM155 0Q156 53 156 106T156 216T156 332V357Q156 411 156 464T156 569T155 674H216Q215 622 215 570T214 464T214 357V332Q214 273 214 217T214 107T216 0H155ZM190 0V36H313Q414 36 481 72T583
177T617 339Q617 484 542 561T325 637H190V674H334Q442 674 519 636T638 523T679 340Q679 234 637 158T516 41T323 0H190ZM49 639V674H181V634H171L49 639Z" />
<glyph unicode="E" horiz-adv-x="636" d="M49 0V35L174 40H182V0H49ZM156 0Q157 51 157 102T157 204T157 307V367Q157 418 157 469T157 572T156 674H216Q216 623 216 572T215 469T215 361V319Q215 262 215 208T215 103T216 0H156ZM186 0V37H548L522 13L545 175H585L576
0H186ZM187 324V361H423V324H187ZM413 228L400 333V353L413 457H448V228H413ZM49 639V674H182V634H174L49 639ZM529 504L504 662L533 636H186V674H558L568 504H529Z" />
<glyph unicode="F" horiz-adv-x="612" d="M49 0V35L174 40H199L334 35V0H49ZM156 0Q157 51 157 102T157 204T157 307V367Q157 418 157 469T157 572T156 674H216Q216 623 216 572T215 469T215 361V319Q215 262 215 208T215 103T216 0H156ZM187 322V359H425V322H187ZM415
225L402 329V351L415 455H450V225H415ZM49 639V674H182V634H174L49 639ZM529 504L505 662L533 636H186V674H559L569 504H529Z" />
<glyph unicode="G" horiz-adv-x="729" d="M406 -15Q329 -15 265 10T155 81T84 191T59 336Q59 416 84 480T157 592T268 664T408 689Q454 689 492 682T562 664T620 637L624 493H585L563 637L602 630V593Q561 621 516 636T411 651Q326 651 261 614T159 506T122 337Q122
239 157 169T258 61T411 23Q468 23 512 36T597 73L573 44V94Q573 150 573 206T571 320H632Q631 266 631 211T630 94V44Q583 17 528 1T406 -15ZM453 285V320H706V285L611 281H589L453 285Z" />
<glyph unicode="H" horiz-adv-x="818" d="M49 0V35L174 40H197L322 35V0H49ZM155 0Q156 52 156 104T156 207T156 307V367Q156 418 156 469T156 571T155 674H216Q215 623 215 572T214 469T214 364V341Q214 276 214 218T214 107T216 0H155ZM187 334V371H632V334H187ZM497
0V35L622 40H645L770 35V0H497ZM603 0Q604 53 604 106T604 218T604 341V364Q604 416 604 468T604 571T603 674H663Q663 623 663 572T662 469T662 367V307Q662 259 662 208T662 104T663 0H603ZM49 639V674H322V639L197 634H174L49 639ZM497 639V674H770V639L645
634H622L497 639Z" />
<glyph unicode="I" horiz-adv-x="371" d="M49 0V35L174 40H197L322 35V0H49ZM155 0Q156 51 156 102T156 204T156 307V367Q156 418 156 469T156 572T155 674H216Q215 623 215 572T214 470T214 367V307Q214 256 214 205T214 102T216 0H155ZM49 639V674H322V639L197
634H174L49 639Z" />
<glyph unicode="J" horiz-adv-x="366" d="M58 -125Q29 -125 11 -117T-11 -89Q-8 -73 5 -66T37 -58Q55 -58 68 -64T96 -83L110 -95H100H111H102Q119 -82 131 -65T151 -21T162 42T166 129Q166 168 166 206T166 285T166 368T165 459T165 560T164 674H224Q223 596
223 518T223 361V157Q223 109 220 73T210 11T194 -35T170 -72Q149 -98 122 -111T58 -125ZM44 639V674H330V639L205 634H182L44 639Z" />
<glyph unicode="K" horiz-adv-x="706" d="M155 0Q156 51 156 102T156 204T156 307V367Q156 418 156 469T156 572T155 674H215Q214 623 214 572T214 470T214 367V251Q214 217 214 177T214 92T215 0H155ZM49 0V35L174 40H197L321 35V0H49ZM49 639V674H321V639L196
634H175L49 639ZM444 0V35L564 40H583L695 35V0H444ZM431 639V674H672V639L569 634L547 633L431 639ZM190 190L188 247H206L274 332L567 674H618L190 190ZM565 0L333 378L371 421L630 0H565Z" />
<glyph unicode="L" horiz-adv-x="604" d="M49 0V35L174 40H182V0H49ZM156 0Q157 51 157 102T157 204T157 307V367Q157 419 157 470T157 572T156 674H216Q216 623 216 572T215 466T215 355V297Q215 251 215 202T215 102T216 0H156ZM186 0V37H528L502 14L527 185H567L558
0H186ZM49 639V674H331V639L199 634H174L49 639Z" />
<glyph unicode="M" horiz-adv-x="941" d="M44 0V35L154 40H177L293 35V0H44ZM43 639V674H169V634H160L43 639ZM145 0V669H175L185 351V0H145ZM437 0L174 625H158V674H211L469 61H463L526 210L714 674H751V625H731L678 485L474 0H437ZM615 0V35L739 40H770L891
35V0H615ZM725 0Q725 53 725 105T726 210T726 315L728 674H785Q784 623 784 572T784 469T784 366V310Q784 258 784 207T784 104T785 0H725ZM760 634V674H891V639L770 634H760Z" />
<glyph unicode="N" horiz-adv-x="779" d="M47 0V35L158 40H178L302 35V0H47ZM147 0V652H178L186 329V0H147ZM486 639V674H740V639L631 634H611L486 639ZM605 -7L181 607H168L159 636L44 639V674H199L610 75L608 73L601 346V674H641V-7H605Z" />
<glyph unicode="O" horiz-adv-x="737" d="M369 -15Q302 -15 245 10T147 81T82 192T59 336Q59 415 82 479T146 591T245 663T369 689Q436 689 492 664T590 593T655 482T678 338Q678 260 656 195T591 83T493 11T369 -15ZM369 23Q428 23 474 47T551 115T599 215T615
337Q615 402 599 458T552 558T474 626T369 651Q309 651 263 627T186 559T138 459T122 337Q122 273 138 216T185 115T263 48T369 23Z" />
<glyph unicode="P" horiz-adv-x="607" d="M49 0V35L174 40H197L333 35V0H49ZM155 0Q156 51 156 102T156 204T156 307V367Q156 418 156 469T156 572T155 674H216Q215 623 215 572T214 470T214 367V298Q214 251 214 201T214 101T216 0H155ZM187 275V310H280Q360
310 409 330T481 388T504 477Q504 556 458 596T308 637H190V674H316Q398 674 453 651T536 583T564 479Q564 419 534 373T441 301T284 275H187ZM49 639V674H181V634H171L49 639Z" />
<glyph unicode="Q" horiz-adv-x="737" d="M521 -206Q460 -206 420 -180T359 -109T338 -9V6H395Q393 -48 410 -86T459 -146T536 -167Q563 -167 586 -162T631 -147L641 -175Q619 -189 588 -197T521 -206ZM369 -15Q302 -15 245 10T147 81T82 192T59 336Q59 415 82
479T146 591T245 663T369 689Q436 689 492 664T590 593T655 482T678 338Q678 260 656 195T591 83T493 11T369 -15ZM369 23Q428 23 474 47T551 115T599 215T615 337Q615 402 599 458T552 558T474 626T369 651Q309 651 263 627T186 559T138 459T122 337Q122 273 138
216T185 115T263 48T369 23Z" />
<glyph unicode="R" horiz-adv-x="682" d="M49 0V35L174 40H197L322 35V0H49ZM155 0Q156 51 156 102T156 204T156 307V367Q156 418 156 469T156 572T155 674H216Q215 620 215 567T214 457T214 338V317Q214 263 214 210T214 104T216 0H155ZM590 -6Q546 -6 526 8T495
56L444 209Q432 247 417 269T376 301T308 311H187V345H323Q383 345 425 365T489 419T511 498Q511 565 467 601T329 637H190V674H336Q448 674 509 629T571 499Q571 448 545 411T472 352T367 327V325Q396 323 417 316T453 296T479 263T500 216L569 20L545 40L661
34V0Q651 -2 640 -3T617 -5T590 -6ZM49 639V674H181V634H171L49 639Z" />
<glyph unicode="S" horiz-adv-x="542" d="M250 -15Q185 -15 133 2T49 38L51 175H89L108 35L72 44V80Q98 61 125 48T182 29T249 22Q309 22 349 39T410 87T431 161Q431 197 417 222T371 269T283 311L247 326Q193 347 153 373T92 434T70 518Q70 573 97 611T172 669T280
689Q339 689 381 675T455 640L453 511H414L396 645L429 636V605Q397 629 361 640T279 652Q231 652 196 637T143 594T124 527Q124 492 139 466T185 420T261 382L297 368Q362 343 403 316T465 254T486 169Q486 114 458 73T376 8T250 -15Z" />
<glyph unicode="T" horiz-adv-x="629" d="M166 0V35L303 40H326L463 35V0H166ZM284 0Q285 51 285 102T285 204T285 307V367Q285 418 285 469T285 572T284 674H345Q344 623 344 572T343 470T343 367V307Q343 256 343 205T343 102T345 0H284ZM23 499L32 674H596L606
499H567L541 667L569 636H60L87 667L62 499H23Z" />
<glyph unicode="U" horiz-adv-x="767" d="M386 -15Q314 -15 259 13T173 100T142 252V360Q142 413 142 465T142 569T141 674H202Q201 622 201 570T200 466T200 360V263Q200 178 224 127T291 52T392 28Q456 28 500 52T566 131T589 272V674H629V258Q629 166 600 106T516
15T386 -15ZM41 639V674H314V639L188 634H159L41 639ZM472 639V674H727V639L618 634H598L472 639Z" />
<glyph unicode="V" horiz-adv-x="691" d="M329 -4L87 674H148L364 45H358L407 205L563 674H605L372 -4H329ZM10 639V674H269V638L146 634H121L10 639ZM446 638V674H679V639L579 634H559L446 638Z" />
<glyph unicode="W" horiz-adv-x="1006" d="M282 -3L92 674H153L321 50H317L357 210L498 674H534L716 48H711L745 198L870 674H912L725 -3H678L503 602H508L471 461L329 -3H282ZM14 639V674H263V639L149 634H120L14 639ZM389 639V674H647V639L532 634H503L389 639ZM763
639V674H991V639L888 634H868L763 639Z" />
<glyph unicode="X" horiz-adv-x="667" d="M15 0V35L125 40H140L257 35V0H15ZM82 0L316 351L340 322H323L282 246L130 0H82ZM392 0V35L514 40H539L652 35V0H392ZM352 340L329 370H347L388 447L527 674H574L352 340ZM518 0L96 674H161L584 0H518ZM28 639V674H288V639L165
634H140L28 639ZM401 639V674H642V639L534 634H516L401 639Z" />
<glyph unicode="Y" horiz-adv-x="660" d="M181 0V35L319 40H341L479 35V0H181ZM300 0Q301 36 301 69T301 136T301 209T301 295H359Q359 248 359 210T359 137T359 70T360 0H300ZM314 233L84 674H150L347 285H341L391 393L531 674H575L346 233H314ZM22 639V674H271V639L152
634H122L22 639ZM408 639V674H642V639L546 634H523L408 639Z" />
<glyph unicode="Z" horiz-adv-x="579" d="M26 0V29L475 654L466 625V643L280 637H79L106 660L80 499H40L50 674H531V645L82 18L91 47V30L292 36H514L487 14L514 175H553L543 0H26Z" />
<glyph unicode="[" horiz-adv-x="321" d="M107 -159Q108 -107 108 -54T108 52T108 158V398Q108 451 108 504T108 610T107 716H156Q156 664 156 611T155 505T155 398V158Q155 106 155 53T155 -53T156 -159H107ZM133 -159V-120H146L273 -124V-159H133ZM133 676V716H273V680L146
676H133Z" />
<glyph unicode="\" horiz-adv-x="314" d="M311 -160H269L3 710H45L311 -160Z" />
<glyph unicode="]" horiz-adv-x="321" d="M214 715Q213 663 213 610T213 504T213 398V158Q213 105 213 52T213 -54T214 -160H165Q165 -108 165 -55T166 51T166 158V398Q166 450 166 503T166 609T165 715H214ZM188 715V676H175L48 680V715H188ZM188 -120V-160H48V-124L175
-120H188Z" />
<glyph unicode="^" horiz-adv-x="531" d="M80 224L245 493H286L453 224L418 203L249 477H282L115 203L80 224Z" />
<glyph unicode="_" horiz-adv-x="511" d="M40 -54V-10H471V-54H40Z" />
<glyph unicode="`" horiz-adv-x="400" d="M251 587L231 570Q211 590 192 609T154 648T117 684Q101 700 94 709T87 729Q87 741 94 748T113 755Q125 755 134 747T156 721Q172 700 187 678T219 633T251 587Z" />
<glyph unicode="a" horiz-adv-x="537" d="M191 -13Q131 -13 92 20T53 114Q53 152 69 180T119 229T205 266Q236 275 266 283T326 299T386 314V286Q345 275 302 262T218 236Q179 224 154 208T118 170T106 123Q106 78 133 54T209 29Q240 29 265 41T318 76T378 133L381
88H359Q336 58 312 36T258 0T191 -13ZM450 -11Q411 -11 390 16T366 100L364 102V331Q364 382 351 411T311 453T243 466Q210 466 182 458T127 434L155 463L136 380Q132 362 123 354T99 345Q84 345 76 353T65 374Q81 435 130 467T254 500Q306 500 342 484T397 431T416
339V108Q416 62 430 45T467 28Q481 28 491 32T510 43L523 20Q510 7 492 -2T450 -11Z" />
<glyph unicode="b" horiz-adv-x="617" d="M42 0V31L135 40Q136 67 136 97T136 158T136 215V684L39 690V720L169 740L189 736L188 608L186 392L188 387V91H187L182 -4L42 0ZM353 -12Q318 -12 289 -1T235 31T189 85H168L172 131Q214 79 253 53T342 27Q389 27 426
50T485 122T507 245Q507 352 461 405T343 459Q311 459 283 448T228 414T172 353L168 399H189Q210 432 235 454T291 488T357 500Q417 500 463 470T536 384T563 248Q563 167 536 109T462 19T353 -12Z" />
<glyph unicode="c" horiz-adv-x="523" d="M289 -12Q218 -12 166 19T84 106T54 240Q54 319 86 377T173 468T293 500Q338 500 375 486T437 447T475 387Q473 373 465 365T441 356Q425 356 416 365T401 390L374 469L415 430Q389 448 361 457T296 466Q243 466 201 439T134
362T110 244Q110 177 133 129T199 56T297 30Q331 30 359 39T410 64T455 103L477 82Q457 56 432 35T371 1T289 -12Z" />
<glyph unicode="d" horiz-adv-x="614" d="M263 -12Q203 -12 156 18T81 104T54 239Q54 321 82 379T159 469T270 500Q304 500 331 489T382 457T426 406H447L442 359Q403 409 366 434T280 460Q231 460 193 437T132 365T110 241Q110 170 131 123T190 52T276 28Q327
28 365 54T442 133L447 85H426Q406 55 383 33T330 0T263 -12ZM433 -5L430 97L429 98V389L431 393L429 684L331 690V720L463 740L482 736L481 609V39L580 31V0L433 -5Z" />
<glyph unicode="e" horiz-adv-x="528" d="M289 -12Q220 -12 167 17T84 102T54 240Q54 320 84 378T165 468T280 500Q342 500 386 475T453 405T477 305Q477 286 476 270T471 243H87V276H406Q418 280 422 290T426 316Q426 359 409 393T360 446T280 466Q232 466 193
440T132 366T109 248Q109 176 133 127T200 54T299 30Q353 30 390 49T457 100L478 82Q459 55 433 34T371 0T289 -12Z" />
<glyph unicode="f" horiz-adv-x="361" d="M39 0V33L149 38H174L298 33V0H39ZM134 0Q134 36 134 72T135 144T136 215V449H38V481L152 490L136 474V483Q138 541 147 582T174 652T215 703Q242 728 273 739T336 751Q371 751 395 740T425 709Q425 697 415 688T387 678Q369
678 354 686T318 711L294 729L304 730H300L311 729Q287 724 266 710T229 670Q218 653 210 635T197 593T190 540T188 469V215Q188 180 188 144T189 72T190 0H134ZM163 449V487H334V449H163Z" />
<glyph unicode="g" horiz-adv-x="543" d="M247 -244Q180 -244 135 -228T66 -181T42 -113Q42 -81 56 -58T99 -17T166 14L176 5Q148 -9 130 -25T104 -60T95 -105Q95 -136 112 -159T163 -196T251 -209Q314 -209 358 -192T426 -147T450 -84Q450 -48 425 -26T339 -3H204Q190
-3 175 -3T145 -1V10Q112 18 92 36T72 88Q72 120 92 142T147 184V199L183 193Q150 167 135 148T120 103Q120 78 139 61T206 44H348Q398 44 431 30T482 -11T500 -75Q500 -109 482 -139T431 -193T351 -230T247 -244ZM246 163Q193 163 152 184T88 243T64 331Q64 380
87 418T152 478T246 500Q275 500 299 494T342 476T375 451L378 450Q402 429 415 399T428 333Q428 283 405 245T340 185T246 163ZM246 195Q285 195 314 213T359 261T376 332Q376 372 360 402T314 450T246 467Q208 467 179 450T133 402T117 331Q117 292 133 261T178
213T246 195ZM350 438V458H371L483 495L507 490V438H350Z" />
<glyph unicode="h" horiz-adv-x="641" d="M43 0V33L153 38H171L277 33V0H43ZM135 0Q135 30 135 67T136 143T136 215V684L39 690V720L169 740L189 736L188 608L187 381L188 376V215Q188 182 188 143T189 67T190 0H135ZM380 0V33L488 38H506L613 33V0H380ZM470 0Q470
30 470 67T471 142T471 215V323Q471 393 444 423T367 453Q338 453 308 443T246 411T177 354L171 391H192Q220 426 250 450T314 487T384 500Q450 500 486 459T523 331V215Q523 181 523 143T524 67T525 0H470Z" />
<glyph unicode="i" horiz-adv-x="323" d="M44 0V33L154 38H172L278 33V0H44ZM135 0Q136 30 136 67T136 143T137 215V266Q137 311 137 352T135 433L40 435V465L172 492L190 489L189 375V215Q189 182 189 143T190 67T191 0H135ZM159 623Q139 623 126 636T112 669Q112
689 125 702T159 715Q179 715 192 702T206 669Q206 649 193 636T159 623Z" />
<glyph unicode="j" horiz-adv-x="297" d="M11 -250Q-13 -250 -28 -244T-51 -230T-61 -214Q-57 -200 -46 -191T-14 -182Q4 -182 18 -188T47 -207L71 -227L59 -225H56L48 -224Q65 -211 77 -197T101 -158Q111 -136 117 -101T125 -19T128 88V266Q128 311 128 352T126
433L31 435V465L162 492L181 489L180 375V101Q180 26 176 -26T162 -115T130 -181Q109 -213 81 -231T11 -250ZM150 623Q131 623 117 636T103 669Q103 689 117 702T150 715Q170 715 183 702T197 669Q197 649 184 636T150 623Z" />
<glyph unicode="k" horiz-adv-x="586" d="M43 0V33L153 38H171L279 33V0H43ZM135 0Q135 24 135 50T136 105T136 161T136 215V684L39 690V720L170 740L190 736L188 608V215Q188 189 188 162T188 106T189 51T190 0H135ZM164 170V222H184L304 348L447 487H497L164
170ZM449 0L270 290L307 326L488 38L573 32V0H449ZM314 455V487H551V455L437 448L420 447L314 455Z" />
<glyph unicode="l" horiz-adv-x="323" d="M39 0V33L153 38H171L284 33V0H39ZM135 0Q135 32 135 68T136 143T136 215V684L39 690V720L170 740L190 736L188 608V215Q188 181 188 143T189 69T190 0H135Z" />
<glyph unicode="m" horiz-adv-x="948" d="M43 0V33L153 38H171L276 33V0H43ZM134 0Q135 30 135 67T135 143T136 215V266Q136 297 136 325T135 380T134 433L39 435V465L160 492L178 489L185 385L188 384V215Q188 182 188 143T188 67T189 0H134ZM365 0V33L474 38H492L598
33V0H365ZM456 0Q456 30 456 67T457 142T457 215V324Q457 393 432 423T359 453Q330 453 302 443T243 411T176 354L171 390H189Q217 425 246 449T306 487T374 500Q437 500 473 460T509 332V215Q509 181 509 143T510 67T511 0H456ZM687 0V33L796 38H814L920 33V0H687ZM777
0Q778 30 778 67T778 142T779 215V325Q779 394 753 423T678 453Q650 453 622 444T563 413T497 358L491 393H509Q536 427 565 451T625 487T693 500Q758 500 794 460T831 334V215Q831 181 831 143T831 67T832 0H777Z" />
<glyph unicode="n" horiz-adv-x="640" d="M43 0V33L153 38H171L276 33V0H43ZM134 0Q135 30 135 67T135 143T136 215V266Q136 297 136 325T135 380T134 433L39 435V465L160 492L178 489L185 384H188V215Q188 182 188 143T188 67T189 0H134ZM378 0V33L487 38H505L611
33V0H378ZM469 0Q469 30 469 67T470 142T470 215V323Q470 393 443 423T366 453Q337 453 307 443T245 411T176 354L171 390H189Q218 425 248 449T312 487T382 500Q448 500 485 459T522 331V215Q522 181 522 143T523 67T524 0H469Z" />
<glyph unicode="o" horiz-adv-x="575" d="M287 -12Q227 -12 174 16T87 102T54 242Q54 326 87 383T173 470T287 500Q348 500 401 471T487 384T521 243Q521 160 488 103T401 17T287 -12ZM287 22Q340 22 379 47T441 122T464 242Q464 313 442 363T380 439T287 465Q236
465 196 440T134 365T111 244Q111 172 133 123T196 48T287 22Z" />
<glyph unicode="p" horiz-adv-x="615" d="M42 -239V-206L152 -200H170L293 -206V-239H42ZM134 -239Q134 -206 134 -170T135 -96T135 -23V265Q135 296 135 324T135 380T134 433L38 435V465L159 492L178 489L184 398L188 396V86L185 82L187 -26Q187 -60 187 -97T187
-171T188 -239H134ZM351 -12Q316 -12 287 -2T234 29T189 80H167L171 129Q213 77 251 52T340 27Q387 27 424 50T483 121T505 244Q505 352 459 405T342 459Q310 459 282 448T227 413T171 353L166 400H188Q210 432 235 454T290 488T355 500Q415 500 461 470T534 384T561
247Q561 166 534 108T460 19T351 -12Z" />
<glyph unicode="q" horiz-adv-x="597" d="M324 -239V-206L447 -200H465L575 -206V-239H324ZM263 -12Q203 -12 156 18T81 104T54 239Q54 321 82 379T159 469T269 500Q303 500 331 489T383 457T427 406H447L443 359Q403 410 366 435T280 460Q231 460 193 437T132
365T110 241Q110 169 131 122T190 51T276 28Q327 28 365 54T442 133L447 85H426Q406 54 383 32T330 -1T263 -12ZM428 -239Q429 -203 429 -167T429 -95T430 -23L432 88L429 92V399L431 400L456 491L484 488L481 366V-23Q481 -59 481 -95T482 -167T483 -239H428Z"
/>
<glyph unicode="r" horiz-adv-x="447" d="M44 0V33L154 38H172L299 33V0H44ZM135 0Q135 30 135 67T136 143T136 215V266Q136 297 136 325T136 380T135 433L39 435V465L161 492L180 489L185 360L189 359V215Q189 182 189 143T189 67T190 0H135ZM182 308L176 359H192Q211
401 235 432T290 480T356 498Q386 498 405 488T430 463Q429 444 418 431T383 418Q365 418 353 425T326 445L306 463L353 462Q298 451 256 412T182 308Z" />
<glyph unicode="s" horiz-adv-x="461" d="M217 -12Q166 -12 129 -4T56 19L53 133H90L110 19H78V53Q103 40 137 30T218 20Q265 20 295 33T339 69T353 116Q353 152 329 174T242 217L204 231Q162 245 131 263T82 307T64 368Q64 406 84 436T143 483T238 500Q283 500
319 490T386 465L384 360H348L332 464H360V434Q332 451 302 459T236 467Q175 467 146 441T116 378Q116 340 143 319T226 279L262 266Q312 249 344 229T391 184T406 125Q406 88 385 57T323 7T217 -12Z" />
<glyph unicode="t" horiz-adv-x="357" d="M151 449V487H324V449H151ZM235 -12Q180 -12 151 18T122 111Q122 130 122 148T123 187V449H19V481L142 490L124 474L142 633H180L174 469L175 460V117Q175 70 193 49T248 28Q270 28 287 33T321 47L335 22Q324 13 309 5T276
-7T235 -12Z" />
<glyph unicode="u" horiz-adv-x="632" d="M262 -12Q192 -12 154 29T117 162L118 460L139 438L24 449V478L154 490L171 484L169 375V171Q169 97 197 66T277 34Q310 34 340 45T401 78T461 131L469 95H448Q424 63 396 39T335 2T262 -12ZM458 -5L454 104H451L452 440L358
449V478L488 490L505 484L503 375V39L593 31V0L458 -5Z" />
<glyph unicode="v" horiz-adv-x="557" d="M257 -3L64 487H124L293 38H288L324 154L446 487H490L297 -3H257ZM9 455V487H229V455L125 448H96L9 455ZM342 455V487H543V455L463 448H444L342 455Z" />
<glyph unicode="w" horiz-adv-x="831" d="M230 -3L63 487H122L264 40H258L290 156L407 485H442L593 40H587L617 155L722 487H765L598 -3H559L409 438H421L390 330L271 -3H230ZM10 455V487H222V455L117 448H95L10 455ZM317 455V487H531V455L442 450H407L317 455ZM622
455V487H816V455L742 448H723L622 455Z" />
<glyph unicode="x" horiz-adv-x="556" d="M18 0V33L105 38H123L217 33V0H18ZM62 0L262 261L283 235H269L191 115L110 0H62ZM318 0V33L422 38H445L537 33V0H318ZM293 235L271 260H286L361 377L440 487H486L293 235ZM429 0L259 233L68 487H130L294 263L493 0H429ZM24
455V487H238V455L139 448H118L24 455ZM331 455V487H527V455L441 448H425L331 455Z" />
<glyph unicode="y" horiz-adv-x="559" d="M82 -250Q57 -250 39 -245T10 -230T-3 -209Q0 -195 12 -187T44 -178Q63 -178 78 -185T110 -207L134 -228L109 -229L113 -221Q142 -210 166 -188T212 -131T251 -52L271 -1L281 2L367 256L452 487H495L290 -43Q264 -110
234 -156T166 -226T82 -250ZM265 -49L63 487H123L286 25L303 18L265 -49ZM8 456V487H228V456L119 449H99L8 456ZM346 456V487H548V456L468 449H449L346 456Z" />
<glyph unicode="z" horiz-adv-x="487" d="M44 0V29L377 467L374 445L370 458L234 455H87L109 477L84 341L48 343L55 487H429V458L96 20L103 48V29L248 33H406L384 10L410 152H447L438 0H44Z" />
<glyph unicode="{" horiz-adv-x="362" d="M47 263V293Q93 299 120 311T158 343T170 388Q170 407 163 429T147 478T131 533T123 592Q123 631 139 658T192 701T284 716H324V683L292 680Q247 677 221 667T185 637T174 588Q174 553 182 519T199 452T208 389Q208 358
195 334T151 296T71 279V277Q121 275 151 261T194 222T208 167Q208 137 200 105T183 38T174 -32Q174 -61 184 -80T221 -110T292 -124L324 -127V-159H284Q228 -159 192 -145T140 -103T123 -36Q123 -5 130 23T147 78T163 127T170 168Q170 194 159 213T120 244T47
263Z" />
<glyph unicode="|" horiz-adv-x="286" d="M122 -240V748H164V-240H122Z" />
<glyph unicode="}" horiz-adv-x="362" d="M315 293V263Q269 257 242 245T204 213T192 168Q192 149 199 127T215 78T231 23T239 -36Q239 -75 223 -102T170 -145T78 -160H38V-127L70 -124Q115 -121 141 -111T177 -81T188 -32Q188 3 180 37T163 104T154 167Q154 198
167 222T211 260T291 277V279Q241 281 211 295T168 334T154 389Q154 419 162 451T179 518T188 588Q188 617 178 636T141 666T70 680L38 683V715H78Q134 715 170 701T222 659T239 592Q239 561 232 533T215 478T199 429T192 388Q192 362 203 343T242 312T315 293Z"
/>
<glyph unicode="~" horiz-adv-x="534" d="M284 359Q307 334 325 324T366 313Q396 313 415 335T441 409L478 402Q474 361 460 332T421 287T363 272Q330 272 304 286T252 329Q230 354 212 365T170 376Q140 376 121 355T94 279L57 286Q62 328 76 357T115 402T174
417Q206 417 232 402T284 359Z" />
<glyph unicode="&#xa0;" horiz-adv-x="244" />
<glyph unicode="&#xa1;" horiz-adv-x="263" d="M131 501Q151 501 164 487T178 454Q178 435 165 422T131 408Q111 408 98 421T85 454Q85 473 98 487T131 501ZM131 -202Q115 -202 106 -192T97 -161Q97 -146 98 -121T100 -63T104 12T109 101L116 300H147L154 101Q157
54 159 13T162 -62T165 -121T167 -161Q167 -182 158 -192T131 -202Z" />
<glyph unicode="&#xa2;" horiz-adv-x="514" d="M290 -47H257V670H290V-47ZM281 533Q230 533 191 507T129 432T106 317Q106 253 128 205T189 131T280 105Q314 105 341 114T392 139T435 179L457 161Q439 135 414 113T354 77T271 64Q206 64 157 95T80 182T52 313Q52
390 82 446T164 534T278 566Q322 566 357 553T418 514T455 455Q453 442 445 434T422 425Q412 425 404 429T391 442T382 463L358 536L397 499Q379 511 361 518T324 529T281 533Z" />
<glyph unicode="&#xa3;" horiz-adv-x="513" d="M50 295V330H394V295H50ZM48 0V40Q88 69 113 99T151 163T163 240Q163 275 154 304T133 362T111 422T102 493Q102 543 123 581T184 641T277 663Q321 663 357 649T418 608T457 542Q453 531 446 525T425 518Q416 518
409 522T396 534T385 556L353 633L392 607Q363 620 339 626T285 632Q225 632 192 595T158 494Q158 460 164 431T180 374T196 314T203 245Q203 198 191 163T153 99T89 45L101 67V51H467V0H48Z" />
<glyph unicode="&#xa4;" horiz-adv-x="494" d="M361 434L349 447L382 494Q400 523 413 537T440 551Q451 551 458 544T466 526Q466 513 452 500T409 468L361 434ZM119 334Q119 295 136 266T183 221T248 204Q283 204 312 221T358 267T375 333Q375 372 358 401T312
446T248 463Q212 463 183 447T137 401T119 334ZM83 334Q83 382 105 418T165 475T247 496Q292 496 329 476T389 419T412 334Q412 285 390 249T330 192T247 171Q203 171 166 191T106 248T83 334ZM146 448L133 435L86 468Q58 487 44 500T29 527Q29 537 36 544T54 552Q67
552 80 538T112 495L146 448ZM133 233L145 220L112 172Q94 144 81 130T54 115Q44 115 36 123T28 141Q28 154 42 167T86 199L133 233ZM348 219L361 232L408 199Q436 180 450 167T465 140Q465 130 458 123T440 115Q427 115 414 129T382 172L348 219Z" />
<glyph unicode="&#xa5;" horiz-adv-x="514" d="M269 247L246 246L59 651H119L275 289H262L296 383L413 651H454L269 247ZM93 612L11 617V651H220V617L120 612H93ZM246 39H268L389 34V0H125V34L246 39ZM232 167V297H282V167Q282 141 282 116T282 63T283 0H231Q231
35 231 63T232 116T232 167ZM407 612L312 617V651H502V617L428 612H407ZM69 144V178H444V144H69ZM69 262V296H444V262H69Z" />
<glyph unicode="&#xa6;" horiz-adv-x="286" d="M122 -240V194H165V-240H122ZM165 323H122V748H165V323Z" />
<glyph unicode="&#xa7;" horiz-adv-x="490" d="M231 -105Q187 -105 152 -92T94 -54T62 4Q66 17 73 23T94 29Q108 29 117 21T133 -5L161 -79L134 -53Q154 -64 176 -70T228 -76Q288 -76 317 -49T347 21Q347 51 335 72T293 113T210 155Q159 178 126 199T76 248T59
313Q59 345 72 370T110 413T170 443V463L192 437Q147 419 127 391T107 323Q107 297 117 278T154 240T232 199Q248 192 263 185T291 171T315 158L318 154Q354 132 374 103T394 30Q394 -9 376 -39T321 -87T231 -105ZM256 689Q297 689 331 676T388 639T420 579Q416
567 409 561T389 554Q375 554 366 562T349 589L321 663L351 637Q330 648 308 654T257 660Q199 660 170 634T140 567Q140 539 153 519T195 480T276 440Q330 416 363 394T413 346T429 282Q429 250 416 225T378 182T317 152V133L296 159Q339 177 360 205T381 273Q381
298 371 317T333 356T254 397Q238 404 223 411T195 425T171 438L168 442Q130 464 112 491T94 558Q94 596 113 625T168 672T256 689Z" />
<glyph unicode="&#xa8;" horiz-adv-x="400" d="M101 632Q84 632 72 644T59 674Q59 693 71 704T101 716Q119 716 131 705T144 674Q144 656 132 644T101 632ZM299 632Q281 632 269 644T256 674Q256 693 268 704T299 716Q316 716 328 705T341 674Q341 656 329 644T299 632Z" />
<glyph unicode="&#xa9;" horiz-adv-x="758" d="M379 -15Q308 -15 245 9T133 79T58 191T30 338Q30 420 57 485T133 595T244 665T379 689Q451 689 514 665T625 596T700 485T728 338Q728 257 701 192T625 80T514 9T379 -15ZM379 16Q446 16 502 39T601 104T667 205T691
338Q691 412 667 471T601 571T502 635T379 657Q314 657 257 635T158 572T92 472T68 338Q68 263 91 204T157 102T257 38T379 16ZM394 130Q336 130 292 157T224 231T199 339Q199 385 213 423T254 490T316 533T394 548Q429 548 454 541T508 518L510 422H477L463 520L497
486Q472 504 449 511T399 519Q354 519 320 497T266 435T246 339Q246 283 265 243T319 182T396 161Q421 161 448 168T499 192L468 160L482 257H514L512 161Q483 144 455 137T394 130Z" />
<glyph unicode="&#xaa;" horiz-adv-x="362" d="M299 421Q270 421 255 439T238 494L236 495V649Q236 697 219 715T162 734Q142 734 126 729T91 715L112 738L100 683Q97 667 89 659T70 651Q58 651 52 658T42 675Q53 714 88 737T174 760Q227 760 255 734T283 650V501Q283
475 291 465T313 455Q322 455 329 458T342 464L351 447Q342 435 329 428T299 421ZM124 419Q85 419 60 441T34 504Q34 541 59 565T138 605Q168 614 197 621T254 636V614Q228 607 202 600T150 584Q113 572 97 555T81 513Q81 485 98 470T144 455Q171 455 193 470T242
511L250 492L233 484Q211 456 187 438T124 419Z" />
<glyph unicode="&#xab;" horiz-adv-x="522" d="M248 58L31 248V278L248 468L267 447L73 250V276L267 80L248 58ZM470 58L253 248V278L470 468L489 447L295 250V276L489 80L470 58Z" />
<glyph unicode="&#xac;" horiz-adv-x="534" d="M38 350V391H496V161H453V363L465 350H38Z" />
<glyph unicode="&#xad;" horiz-adv-x="317" d="M40 229V273H277V229H40Z" />
<glyph unicode="&#xae;" horiz-adv-x="459" d="M331 437V419Q326 418 321 418T309 417Q289 417 281 423T269 443L257 483Q254 497 247 502T224 508L191 509V525L225 526Q250 526 261 538T273 567Q273 584 262 594T226 605H191V622H232Q268 622 287 609T306 570Q306
545 286 532T231 518L233 516Q262 515 273 508T291 483L309 428L290 438L331 437ZM183 438H191L233 437V419H142V437L183 438ZM182 602L142 604V622H186V604L182 602ZM59 516Q59 465 83 427T145 366T229 344Q274 344 313 366T375 426T399 516Q399 567 376 605T313
664T229 686Q184 686 146 665T83 605T59 516ZM172 419V622H204V419H172ZM30 516Q30 576 58 620T131 688T229 712Q282 712 327 688T400 620T428 516Q428 456 400 412T327 343T229 318Q177 318 132 342T58 411T30 516Z" />
<glyph unicode="&#xaf;" horiz-adv-x="400" d="M78 629V670H322V629H78Z" />
<glyph unicode="&#xb0;" horiz-adv-x="331" d="M166 466Q205 466 231 493T257 562Q257 604 231 631T166 658Q127 658 101 631T74 562Q74 520 100 493T166 466ZM166 435Q130 435 102 450T56 494T39 562Q39 600 56 628T101 673T166 689Q201 689 229 673T275 629T292
562Q292 523 275 495T230 451T166 435Z" />
<glyph unicode="&#xb1;" horiz-adv-x="534" d="M245 99V562H289V99H245ZM496 312H38V353H496V312ZM496 0H38V41H496V0Z" />
<glyph unicode="&#xb2;" horiz-adv-x="363" d="M51 429V466L163 575Q195 607 215 633T246 685T256 737Q256 775 233 797T167 820Q146 820 129 816T93 801L124 825L107 769Q102 750 95 742T74 733Q63 733 56 739T46 754Q56 796 92 821T180 847Q240 847 274 818T308
740Q308 710 296 683T259 628T195 567L78 468L87 487L88 475H325V429H51Z" />
<glyph unicode="&#xb3;" horiz-adv-x="363" d="M173 420Q120 420 87 441T44 503Q46 514 53 519T70 525Q82 525 89 518T102 491L116 438L90 462Q105 454 123 450T166 446Q217 446 244 472T271 540Q271 581 243 605T156 629H129V657H153Q205 657 231 680T258 742Q258
779 236 799T170 820Q151 820 134 817T99 806L127 827L114 777Q109 759 102 752T83 745Q72 745 66 750T56 765Q63 792 80 810T124 838T181 847Q239 847 273 820T308 747Q308 704 276 676T188 643H187Q251 641 286 615T321 538Q321 503 303 476T251 435T173 420Z"
/>
<glyph unicode="&#xb4;" horiz-adv-x="400" d="M149 587Q165 610 181 632T213 677T244 721Q257 739 266 747T286 755Q297 755 305 748T313 729Q313 719 306 710T283 684Q266 667 247 648T209 610T169 570L149 587Z" />
<glyph unicode="&#xb5;" horiz-adv-x="614" d="M106 -193L116 129L105 483L153 497L165 488Q164 424 163 369T160 264T159 169T158 78L151 70L166 -188L119 -202L106 -193ZM521 -12Q483 -12 463 15T442 104L440 109L436 483L484 497L496 488Q494 423 492 369T489
270T486 183T485 101Q486 60 499 46T535 32Q551 32 562 36T581 46L592 22Q582 10 565 -1T521 -12ZM274 -11Q230 -11 199 12T156 73H142L149 116Q172 76 204 57T281 37Q315 37 343 49T398 87T449 148L456 119H442Q422 80 399 51T344 5T274 -11Z" />
<glyph unicode="&#xb6;" horiz-adv-x="593" d="M333 167Q271 167 219 184T128 234T68 314T47 420Q47 479 68 526T130 606T227 656T356 674H421V636H333V167ZM403 -131Q404 -79 404 -28T405 76T405 180V674H454Q454 623 454 572T453 468T453 364V180Q453 128 453
76T453 -27T454 -131H403ZM429 634V674H553V639L438 634H429Z" />
<glyph unicode="&#xb7;" horiz-adv-x="299" d="M150 277Q128 277 115 291T101 325Q101 345 114 359T150 373Q171 373 184 359T198 325Q198 305 185 291T150 277Z" />
<glyph unicode="&#xb8;" horiz-adv-x="400" d="M148 -86L162 1H189L178 -80L167 -62Q201 -63 225 -73T262 -100T276 -142Q276 -177 250 -199T174 -222Q153 -222 137 -219T109 -211L117 -186Q129 -189 142 -191T170 -194Q201 -194 216 -180T232 -142Q232 -118 214
-103T148 -86Z" />
<glyph unicode="&#xb9;" horiz-adv-x="363" d="M68 429V456L174 462H206L307 456V429H68ZM165 429V796L73 780V808L200 844L215 841V429H165Z" />
<glyph unicode="&#xba;" horiz-adv-x="387" d="M194 420Q153 420 117 439T59 496T36 589Q36 644 58 682T117 740T194 760Q235 760 270 741T328 683T351 590Q351 535 329 497T271 440T194 420ZM194 448Q226 448 250 463T287 510T301 589Q301 636 288 667T250 715T194
732Q161 732 137 716T100 669T86 590Q86 543 99 512T137 464T194 448Z" />
<glyph unicode="&#xbb;" horiz-adv-x="522" d="M274 468L491 278V248L274 58L255 79L449 276V250L255 446L274 468ZM52 468L269 278V248L52 58L33 79L227 276V250L33 446L52 468Z" />
<glyph unicode="&#xbc;" horiz-adv-x="867" d="M68 265V292L174 298H206L307 292V265H68ZM165 265V632L73 616V644L200 680L215 677V265H165ZM224 -24L198 -5L672 672L698 653L224 -24ZM720 -6V124L721 133V368H707L732 383L646 257L553 140L559 161V147H842V108H529V141L731
414H768V-6H720Z" />
<glyph unicode="&#xbd;" horiz-adv-x="897" d="M68 265V292L174 298H206L307 292V265H68ZM165 265V632L73 616V644L200 680L215 677V265H165ZM224 -24L198 -5L672 672L698 653L224 -24ZM584 0V37L696 146Q728 178 748 204T779 256T789 308Q789 346 766 368T700
391Q679 391 662 387T626 372L657 396L640 340Q635 321 628 313T607 304Q596 304 589 310T579 325Q589 367 625 392T713 418Q773 418 807 389T841 311Q841 281 829 254T792 199T728 138L611 39L620 58L621 46H858V0H584Z" />
<glyph unicode="&#xbe;" horiz-adv-x="867" d="M173 256Q120 256 87 277T44 339Q46 350 53 355T70 361Q82 361 89 354T102 327L116 274L90 298Q105 290 123 286T166 282Q217 282 244 308T271 376Q271 417 243 441T156 465H129V493H153Q205 493 231 516T258 578Q258
615 236 635T170 656Q151 656 134 653T99 642L127 663L114 613Q109 595 102 588T83 581Q72 581 66 586T56 601Q63 628 80 646T124 674T181 683Q239 683 273 656T308 583Q308 540 276 512T188 479H187Q251 477 286 451T321 374Q321 339 303 312T251 271T173 256ZM224
-24L198 -5L672 672L698 653L224 -24ZM720 -6V124L721 133V368H707L732 383L646 257L553 140L559 161V147H842V108H529V141L731 414H768V-6H720Z" />
<glyph unicode="&#xbf;" horiz-adv-x="382" d="M240 501Q260 501 273 487T286 454Q286 435 273 422T240 408Q220 408 207 421T193 454Q193 473 206 487T240 501ZM48 -2Q48 54 75 89T152 151L174 163Q206 180 217 195T228 245L225 304H255L262 271Q266 248 269
234T272 205Q272 179 256 161T198 121L173 109Q129 84 108 57T87 -11Q87 -56 115 -91T202 -161L110 -112L261 -124Q288 -126 299 -137T311 -164Q311 -180 301 -189T277 -203Q231 -193 190 -176T116 -135T66 -77T48 -2Z" />
<glyph unicode="&#xc0;" horiz-adv-x="701" d="M17 0V35L113 40H130L238 35V0H17ZM88 0L322 678H369L606 0H545L331 627H334L306 534L129 0H88ZM192 231V267H487V231H192ZM425 0V35L549 40H569L686 35V0H425ZM399 746L383 726Q353 743 323 761T263 797Q240 811
230 821T220 842Q220 854 227 860T246 867Q257 867 268 860T297 836Q322 815 347 792T399 746Z" />
<glyph unicode="&#xc1;" horiz-adv-x="701" d="M17 0V35L113 40H130L238 35V0H17ZM88 0L322 678H369L606 0H545L331 627H334L306 534L129 0H88ZM192 231V267H487V231H192ZM425 0V35L549 40H569L686 35V0H425ZM291 746Q317 769 342 792T393 837Q411 853 422 860T444
867Q456 867 463 861T470 842Q470 831 460 821T427 797Q397 780 367 762T307 726L291 746Z" />
<glyph unicode="&#xc2;" horiz-adv-x="701" d="M17 0V35L113 40H130L238 35V0H17ZM88 0L322 678H369L606 0H545L331 627H334L306 534L129 0H88ZM192 231V267H487V231H192ZM425 0V35L549 40H569L686 35V0H425ZM358 846L487 733L472 714L325 810H365L218 714L203
733L332 846H358Z" />
<glyph unicode="&#xc3;" horiz-adv-x="701" d="M17 0V35L113 40H130L238 35V0H17ZM88 0L322 678H369L606 0H545L331 627H334L306 534L129 0H88ZM192 231V267H487V231H192ZM425 0V35L549 40H569L686 35V0H425ZM176 747Q184 796 208 823T271 851Q298 851 317 841T353
813Q369 797 384 786T422 775Q446 775 462 792T487 845L514 838Q506 790 482 762T418 734Q392 734 373 745T338 772Q322 788 306 799T268 810Q244 810 229 793T203 740L176 747Z" />
<glyph unicode="&#xc4;" horiz-adv-x="701" d="M17 0V35L113 40H130L238 35V0H17ZM88 0L322 678H369L606 0H545L331 627H334L306 534L129 0H88ZM192 231V267H487V231H192ZM425 0V35L549 40H569L686 35V0H425ZM239 752Q221 752 209 764T196 795Q196 813 208 825T239
837Q257 837 269 825T282 795Q282 776 270 764T239 752ZM451 752Q433 752 421 764T408 795Q408 813 420 825T451 837Q469 837 481 825T494 795Q494 776 482 764T451 752Z" />
<glyph unicode="&#xc5;" horiz-adv-x="701" d="M17 0V35L113 40H130L238 35V0H17ZM88 0L322 678H369L606 0H545L331 627H334L306 534L129 0H88ZM192 231V267H487V231H192ZM425 0V35L549 40H569L686 35V0H425ZM345 722Q308 722 281 746T254 809Q254 848 280 872T345
896Q383 896 410 872T437 808Q437 770 410 746T345 722ZM345 750Q372 750 388 767T404 809Q404 833 388 850T345 867Q319 867 304 850T288 809Q288 785 303 768T345 750Z" />
<glyph unicode="&#xc6;" horiz-adv-x="941" d="M479 0Q480 49 480 98T480 194T480 288V674H539Q538 623 538 572T538 468T538 361V319Q538 262 538 208T538 103T539 0H479ZM16 0V35L112 40H131L236 35V0H16ZM719 228L707 333V353L719 457H754V228H719ZM834 504L814
636H510V674H864L874 504H834ZM508 0V37H832L851 175H891L882 0H508ZM337 639V674H502V634H472L337 639ZM376 0V35L496 40H505V0H376ZM77 0L445 674H485L267 266L123 0H77ZM243 247V281H501V247H243ZM510 324V361H729V324H510Z" />
<glyph unicode="&#xc7;" horiz-adv-x="672" d="M405 -15Q329 -15 266 10T156 80T84 191T59 336Q59 416 85 481T157 592T267 664T406 689Q466 689 515 676T606 639L610 496H571L549 640L587 634V597Q547 625 505 638T409 651Q325 651 260 614T159 506T122 337Q122
238 158 168T259 61T408 23Q465 23 511 35T594 73V39L558 35L579 179H619L615 34Q576 11 524 -2T405 -15ZM380 -86L394 1H421L410 -80L399 -62Q433 -63 457 -73T494 -100T508 -142Q508 -177 482 -199T406 -222Q385 -222 369 -219T341 -211L349 -186Q361 -189 374
-191T402 -194Q433 -194 448 -180T464 -142Q464 -118 446 -103T380 -86Z" />
<glyph unicode="&#xc8;" horiz-adv-x="636" d="M49 0V35L174 40H182V0H49ZM156 0Q157 51 157 102T157 204T157 307V367Q157 418 157 469T157 572T156 674H216Q216 623 216 572T215 469T215 361V319Q215 262 215 208T215 103T216 0H156ZM186 0V37H548L522 13L545
175H585L576 0H186ZM187 324V361H423V324H187ZM413 228L400 333V353L413 457H448V228H413ZM49 639V674H182V634H174L49 639ZM529 504L504 662L533 636H186V674H558L568 504H529ZM406 746L390 726Q360 743 330 761T270 797Q247 811 237 821T227 842Q227 854 234
860T253 867Q264 867 275 860T304 836Q329 815 354 792T406 746Z" />
<glyph unicode="&#xc9;" horiz-adv-x="636" d="M49 0V35L174 40H182V0H49ZM156 0Q157 51 157 102T157 204T157 307V367Q157 418 157 469T157 572T156 674H216Q216 623 216 572T215 469T215 361V319Q215 262 215 208T215 103T216 0H156ZM186 0V37H548L522 13L545
175H585L576 0H186ZM187 324V361H423V324H187ZM413 228L400 333V353L413 457H448V228H413ZM49 639V674H182V634H174L49 639ZM529 504L504 662L533 636H186V674H558L568 504H529ZM298 746Q324 769 349 792T400 837Q418 853 429 860T451 867Q463 867 470 861T477
842Q477 831 467 821T434 797Q404 780 374 762T314 726L298 746Z" />
<glyph unicode="&#xca;" horiz-adv-x="636" d="M49 0V35L174 40H182V0H49ZM156 0Q157 51 157 102T157 204T157 307V367Q157 418 157 469T157 572T156 674H216Q216 623 216 572T215 469T215 361V319Q215 262 215 208T215 103T216 0H156ZM186 0V37H548L522 13L545
175H585L576 0H186ZM187 324V361H423V324H187ZM413 228L400 333V353L413 457H448V228H413ZM49 639V674H182V634H174L49 639ZM529 504L504 662L533 636H186V674H558L568 504H529ZM365 846L494 733L479 714L332 810H372L225 714L210 733L339 846H365Z" />
<glyph unicode="&#xcb;" horiz-adv-x="636" d="M49 0V35L174 40H182V0H49ZM156 0Q157 51 157 102T157 204T157 307V367Q157 418 157 469T157 572T156 674H216Q216 623 216 572T215 469T215 361V319Q215 262 215 208T215 103T216 0H156ZM186 0V37H548L522 13L545
175H585L576 0H186ZM187 324V361H423V324H187ZM413 228L400 333V353L413 457H448V228H413ZM49 639V674H182V634H174L49 639ZM529 504L504 662L533 636H186V674H558L568 504H529ZM246 752Q228 752 216 764T203 795Q203 813 215 825T246 837Q264 837 276 825T289
795Q289 776 277 764T246 752ZM458 752Q440 752 428 764T415 795Q415 813 427 825T458 837Q476 837 488 825T501 795Q501 776 489 764T458 752Z" />
<glyph unicode="&#xcc;" horiz-adv-x="371" d="M49 0V35L174 40H197L322 35V0H49ZM155 0Q156 51 156 102T156 204T156 307V367Q156 418 156 469T156 572T155 674H216Q215 623 215 572T214 470T214 367V307Q214 256 214 205T214 102T216 0H155ZM49 639V674H322V639L197
634H174L49 639ZM240 746L224 726Q194 743 164 761T104 797Q81 811 71 821T61 842Q61 854 68 860T87 867Q98 867 109 860T138 836Q163 815 188 792T240 746Z" />
<glyph unicode="&#xcd;" horiz-adv-x="371" d="M49 0V35L174 40H197L322 35V0H49ZM155 0Q156 51 156 102T156 204T156 307V367Q156 418 156 469T156 572T155 674H216Q215 623 215 572T214 470T214 367V307Q214 256 214 205T214 102T216 0H155ZM49 639V674H322V639L197
634H174L49 639ZM132 746Q158 769 183 792T234 837Q252 853 263 860T285 867Q297 867 304 861T311 842Q311 831 301 821T268 797Q238 780 208 762T148 726L132 746Z" />
<glyph unicode="&#xce;" horiz-adv-x="371" d="M49 0V35L174 40H197L322 35V0H49ZM155 0Q156 51 156 102T156 204T156 307V367Q156 418 156 469T156 572T155 674H216Q215 623 215 572T214 470T214 367V307Q214 256 214 205T214 102T216 0H155ZM49 639V674H322V639L197
634H174L49 639ZM199 846L328 733L313 714L166 810H206L59 714L44 733L173 846H199Z" />
<glyph unicode="&#xcf;" horiz-adv-x="371" d="M93 752Q75 752 63 764T50 795Q50 813 62 825T93 837Q111 837 123 825T136 795Q136 776 124 764T93 752ZM278 752Q260 752 248 764T235 795Q235 813 247 825T278 837Q296 837 308 825T321 795Q321 776 309 764T278
752ZM49 0V35L174 40H197L322 35V0H49ZM155 0Q156 51 156 102T156 204T156 307V367Q156 418 156 469T156 572T155 674H216Q215 623 215 572T214 470T214 367V307Q214 256 214 205T214 102T216 0H155ZM49 639V674H322V639L197 634H174L49 639Z" />
<glyph unicode="&#xd0;" horiz-adv-x="739" d="M388 328H52V363H388V328ZM49 0V35L171 40H181V0H49ZM155 0Q156 53 156 106T156 216T156 332V357Q156 411 156 464T156 569T155 674H216Q215 622 215 570T214 464T214 357V332Q214 273 214 217T214 107T216 0H155ZM190
0V36H313Q414 36 481 72T583 177T617 339Q617 484 542 561T325 637H190V674H334Q442 674 519 636T638 523T679 340Q679 234 637 158T516 41T323 0H190ZM49 639V674H181V634H171L49 639Z" />
<glyph unicode="&#xd1;" horiz-adv-x="779" d="M47 0V35L158 40H178L302 35V0H47ZM147 0V652H178L186 329V0H147ZM486 639V674H740V639L631 634H611L486 639ZM605 -7L181 607H168L159 636L44 639V674H199L610 75L608 73L601 346V674H641V-7H605ZM226 747Q234 796
258 823T321 851Q348 851 367 841T403 813Q419 797 434 786T472 775Q496 775 512 792T537 845L564 838Q556 790 532 762T468 734Q442 734 423 745T388 772Q372 788 356 799T318 810Q294 810 279 793T253 740L226 747Z" />
<glyph unicode="&#xd2;" horiz-adv-x="737" d="M369 -15Q302 -15 245 10T147 81T82 192T59 336Q59 415 82 479T146 591T245 663T369 689Q436 689 492 664T590 593T655 482T678 338Q678 260 656 195T591 83T493 11T369 -15ZM369 23Q428 23 474 47T551 115T599 215T615
337Q615 402 599 458T552 558T474 626T369 651Q309 651 263 627T186 559T138 459T122 337Q122 273 138 216T185 115T263 48T369 23ZM423 746L407 726Q377 743 347 761T287 797Q264 811 254 821T244 842Q244 854 251 860T270 867Q281 867 292 860T321 836Q346 815
371 792T423 746Z" />
<glyph unicode="&#xd3;" horiz-adv-x="737" d="M369 -15Q302 -15 245 10T147 81T82 192T59 336Q59 415 82 479T146 591T245 663T369 689Q436 689 492 664T590 593T655 482T678 338Q678 260 656 195T591 83T493 11T369 -15ZM369 23Q428 23 474 47T551 115T599 215T615
337Q615 402 599 458T552 558T474 626T369 651Q309 651 263 627T186 559T138 459T122 337Q122 273 138 216T185 115T263 48T369 23ZM315 746Q341 769 366 792T417 837Q435 853 446 860T468 867Q480 867 487 861T494 842Q494 831 484 821T451 797Q421 780 391 762T331
726L315 746Z" />
<glyph unicode="&#xd4;" horiz-adv-x="737" d="M369 -15Q302 -15 245 10T147 81T82 192T59 336Q59 415 82 479T146 591T245 663T369 689Q436 689 492 664T590 593T655 482T678 338Q678 260 656 195T591 83T493 11T369 -15ZM369 23Q428 23 474 47T551 115T599 215T615
337Q615 402 599 458T552 558T474 626T369 651Q309 651 263 627T186 559T138 459T122 337Q122 273 138 216T185 115T263 48T369 23ZM382 846L511 733L496 714L349 810H389L242 714L227 733L356 846H382Z" />
<glyph unicode="&#xd5;" horiz-adv-x="737" d="M369 -15Q302 -15 245 10T147 81T82 192T59 336Q59 415 82 479T146 591T245 663T369 689Q436 689 492 664T590 593T655 482T678 338Q678 260 656 195T591 83T493 11T369 -15ZM369 23Q428 23 474 47T551 115T599 215T615
337Q615 402 599 458T552 558T474 626T369 651Q309 651 263 627T186 559T138 459T122 337Q122 273 138 216T185 115T263 48T369 23ZM200 747Q208 796 232 823T295 851Q322 851 341 841T377 813Q393 797 408 786T446 775Q470 775 486 792T511 845L538 838Q530 790
506 762T442 734Q416 734 397 745T362 772Q346 788 330 799T292 810Q268 810 253 793T227 740L200 747Z" />
<glyph unicode="&#xd6;" horiz-adv-x="737" d="M369 -15Q302 -15 245 10T147 81T82 192T59 336Q59 415 82 479T146 591T245 663T369 689Q436 689 492 664T590 593T655 482T678 338Q678 260 656 195T591 83T493 11T369 -15ZM369 23Q428 23 474 47T551 115T599 215T615
337Q615 402 599 458T552 558T474 626T369 651Q309 651 263 627T186 559T138 459T122 337Q122 273 138 216T185 115T263 48T369 23ZM263 752Q245 752 233 764T220 795Q220 813 232 825T263 837Q281 837 293 825T306 795Q306 776 294 764T263 752ZM475 752Q457 752
445 764T432 795Q432 813 444 825T475 837Q493 837 505 825T518 795Q518 776 506 764T475 752Z" />
<glyph unicode="&#xd7;" horiz-adv-x="534" d="M447 123L58 512L87 541L477 152L447 123ZM476 512L87 122L58 151L447 541L476 512Z" />
<glyph unicode="&#xd8;" horiz-adv-x="737" d="M667 669L96 -17L68 6L640 692L667 669ZM118 337Q118 273 134 216T183 115T261 47T369 22Q429 22 475 47T554 115T602 215T619 337Q619 402 603 458T554 558T476 627T369 652Q308 652 262 627T183 559T135 459T118
337ZM369 689Q436 689 492 664T590 593T655 482T678 338Q678 260 656 195T591 83T493 11T369 -15Q302 -15 245 10T147 81T82 192T59 336Q59 415 82 479T146 591T245 663T369 689Z" />
<glyph unicode="&#xd9;" horiz-adv-x="767" d="M386 -15Q314 -15 259 13T173 100T142 252V360Q142 413 142 465T142 569T141 674H202Q201 622 201 570T200 466T200 360V263Q200 178 224 127T291 52T392 28Q456 28 500 52T566 131T589 272V674H629V258Q629 166
600 106T516 15T386 -15ZM41 639V674H314V639L188 634H159L41 639ZM472 639V674H727V639L618 634H598L472 639ZM453 746L437 726Q407 743 377 761T317 797Q294 811 284 821T274 842Q274 854 281 860T300 867Q311 867 322 860T351 836Q376 815 401 792T453 746Z"
/>
<glyph unicode="&#xda;" horiz-adv-x="767" d="M386 -15Q314 -15 259 13T173 100T142 252V360Q142 413 142 465T142 569T141 674H202Q201 622 201 570T200 466T200 360V263Q200 178 224 127T291 52T392 28Q456 28 500 52T566 131T589 272V674H629V258Q629 166
600 106T516 15T386 -15ZM41 639V674H314V639L188 634H159L41 639ZM472 639V674H727V639L618 634H598L472 639ZM345 746Q371 769 396 792T447 837Q465 853 476 860T498 867Q510 867 517 861T524 842Q524 831 514 821T481 797Q451 780 421 762T361 726L345 746Z"
/>
<glyph unicode="&#xdb;" horiz-adv-x="767" d="M386 -15Q314 -15 259 13T173 100T142 252V360Q142 413 142 465T142 569T141 674H202Q201 622 201 570T200 466T200 360V263Q200 178 224 127T291 52T392 28Q456 28 500 52T566 131T589 272V674H629V258Q629 166
600 106T516 15T386 -15ZM41 639V674H314V639L188 634H159L41 639ZM472 639V674H727V639L618 634H598L472 639ZM412 846L541 733L526 714L379 810H419L272 714L257 733L386 846H412Z" />
<glyph unicode="&#xdc;" horiz-adv-x="767" d="M386 -15Q314 -15 259 13T173 100T142 252V360Q142 413 142 465T142 569T141 674H202Q201 622 201 570T200 466T200 360V263Q200 178 224 127T291 52T392 28Q456 28 500 52T566 131T589 272V674H629V258Q629 166
600 106T516 15T386 -15ZM41 639V674H314V639L188 634H159L41 639ZM472 639V674H727V639L618 634H598L472 639ZM293 752Q275 752 263 764T250 795Q250 813 262 825T293 837Q311 837 323 825T336 795Q336 776 324 764T293 752ZM505 752Q487 752 475 764T462 795Q462
813 474 825T505 837Q523 837 535 825T548 795Q548 776 536 764T505 752Z" />
<glyph unicode="&#xdd;" horiz-adv-x="660" d="M181 0V35L319 40H341L479 35V0H181ZM300 0Q301 36 301 69T301 136T301 209T301 295H359Q359 248 359 210T359 137T359 70T360 0H300ZM314 233L84 674H150L347 285H341L391 393L531 674H575L346 233H314ZM22 639V674H271V639L152
634H122L22 639ZM408 639V674H642V639L546 634H523L408 639ZM292 746Q318 769 343 792T394 837Q412 853 423 860T445 867Q457 867 464 861T471 842Q471 831 461 821T428 797Q398 780 368 762T308 726L292 746Z" />
<glyph unicode="&#xde;" horiz-adv-x="608" d="M187 165V201H298Q407 201 456 242T505 355Q505 428 459 467T311 506H190V542H316Q400 542 455 519T537 454T564 355Q564 314 549 280T502 220T419 180T298 165H187ZM155 0Q156 51 156 102T156 204T156 307V367Q156
418 156 469T156 572T155 674H216Q215 623 215 572T214 470T214 367V307Q214 256 214 205T214 102T216 0H155ZM182 634L49 639V674H333V639L206 634H182ZM49 0V35L174 40H198L333 35V0H49Z" />
<glyph unicode="&#xdf;" horiz-adv-x="602" d="M33 0V33L143 38H163V0H33ZM128 0Q129 54 129 108T129 215V466Q129 526 138 568T163 640T203 693Q233 722 272 736T357 751Q429 751 471 716T513 625Q513 595 503 573T474 531T431 490Q410 470 395 451T371 413T363
371Q363 349 371 333T398 301T444 269Q487 244 513 221T550 174T562 119Q562 82 544 53T491 6T403 -12Q364 -12 332 -5T276 12L273 134H307L327 15L296 46Q320 34 346 27T403 20Q440 20 464 32T499 65T511 112Q511 133 503 151T476 186T423 222Q389 242 365 261T329
304T317 360Q317 389 327 412T355 457T393 497Q425 528 444 554T464 619Q464 646 452 668T415 704T351 717Q315 717 286 706T234 671Q217 652 205 627T187 566T181 476V215Q181 162 182 108T183 0H128Z" />
<glyph unicode="&#xe0;" horiz-adv-x="537" d="M191 -13Q131 -13 92 20T53 114Q53 152 69 180T119 229T205 266Q236 275 266 283T326 299T386 314V286Q345 275 302 262T218 236Q179 224 154 208T118 170T106 123Q106 78 133 54T209 29Q240 29 265 41T318 76T378
133L381 88H359Q336 58 312 36T258 0T191 -13ZM450 -11Q411 -11 390 16T366 100L364 102V331Q364 382 351 411T311 453T243 466Q210 466 182 458T127 434L155 463L136 380Q132 362 123 354T99 345Q84 345 76 353T65 374Q81 435 130 467T254 500Q306 500 342 484T397
431T416 339V108Q416 62 430 45T467 28Q481 28 491 32T510 43L523 20Q510 7 492 -2T450 -11ZM305 587L285 570Q265 590 246 609T208 648T171 684Q155 700 148 709T141 729Q141 741 148 748T167 755Q179 755 188 747T210 721Q226 700 241 678T273 633T305 587Z"
/>
<glyph unicode="&#xe1;" horiz-adv-x="537" d="M191 -13Q131 -13 92 20T53 114Q53 152 69 180T119 229T205 266Q236 275 266 283T326 299T386 314V286Q345 275 302 262T218 236Q179 224 154 208T118 170T106 123Q106 78 133 54T209 29Q240 29 265 41T318 76T378
133L381 88H359Q336 58 312 36T258 0T191 -13ZM450 -11Q411 -11 390 16T366 100L364 102V331Q364 382 351 411T311 453T243 466Q210 466 182 458T127 434L155 463L136 380Q132 362 123 354T99 345Q84 345 76 353T65 374Q81 435 130 467T254 500Q306 500 342 484T397
431T416 339V108Q416 62 430 45T467 28Q481 28 491 32T510 43L523 20Q510 7 492 -2T450 -11ZM203 587Q219 610 235 632T267 677T298 721Q311 739 320 747T340 755Q351 755 359 748T367 729Q367 719 360 710T337 684Q320 667 301 648T263 610T223 570L203 587Z"
/>
<glyph unicode="&#xe2;" horiz-adv-x="537" d="M191 -13Q131 -13 92 20T53 114Q53 152 69 180T119 229T205 266Q236 275 266 283T326 299T386 314V286Q345 275 302 262T218 236Q179 224 154 208T118 170T106 123Q106 78 133 54T209 29Q240 29 265 41T318 76T378
133L381 88H359Q336 58 312 36T258 0T191 -13ZM450 -11Q411 -11 390 16T366 100L364 102V331Q364 382 351 411T311 453T243 466Q210 466 182 458T127 434L155 463L136 380Q132 362 123 354T99 345Q84 345 76 353T65 374Q81 435 130 467T254 500Q306 500 342 484T397
431T416 339V108Q416 62 430 45T467 28Q481 28 491 32T510 43L523 20Q510 7 492 -2T450 -11ZM366 560L234 702H274L142 560L122 578L241 739H267L386 578L366 560Z" />
<glyph unicode="&#xe3;" horiz-adv-x="537" d="M191 -13Q131 -13 92 20T53 114Q53 152 69 180T119 229T205 266Q236 275 266 283T326 299T386 314V286Q345 275 302 262T218 236Q179 224 154 208T118 170T106 123Q106 78 133 54T209 29Q240 29 265 41T318 76T378
133L381 88H359Q336 58 312 36T258 0T191 -13ZM450 -11Q411 -11 390 16T366 100L364 102V331Q364 382 351 411T311 453T243 466Q210 466 182 458T127 434L155 463L136 380Q132 362 123 354T99 345Q84 345 76 353T65 374Q81 435 130 467T254 500Q306 500 342 484T397
431T416 339V108Q416 62 430 45T467 28Q481 28 491 32T510 43L523 20Q510 7 492 -2T450 -11ZM95 605Q101 659 124 687T185 715Q211 715 228 703T261 674Q277 657 291 645T325 633Q348 633 362 650T385 708L413 701Q407 649 384 621T324 592Q298 592 281 604T247
632Q232 648 218 661T183 674Q161 674 146 657T123 598L95 605Z" />
<glyph unicode="&#xe4;" horiz-adv-x="537" d="M191 -13Q131 -13 92 20T53 114Q53 152 69 180T119 229T205 266Q236 275 266 283T326 299T386 314V286Q345 275 302 262T218 236Q179 224 154 208T118 170T106 123Q106 78 133 54T209 29Q240 29 265 41T318 76T378
133L381 88H359Q336 58 312 36T258 0T191 -13ZM450 -11Q411 -11 390 16T366 100L364 102V331Q364 382 351 411T311 453T243 466Q210 466 182 458T127 434L155 463L136 380Q132 362 123 354T99 345Q84 345 76 353T65 374Q81 435 130 467T254 500Q306 500 342 484T397
431T416 339V108Q416 62 430 45T467 28Q481 28 491 32T510 43L523 20Q510 7 492 -2T450 -11ZM155 632Q138 632 126 644T113 674Q113 693 125 704T155 716Q173 716 185 705T198 674Q198 656 186 644T155 632ZM353 632Q335 632 323 644T310 674Q310 693 322 704T353
716Q370 716 382 705T395 674Q395 656 383 644T353 632Z" />
<glyph unicode="&#xe5;" horiz-adv-x="537" d="M191 -13Q131 -13 92 20T53 114Q53 152 69 180T119 229T205 266Q236 275 266 283T326 299T386 314V286Q345 275 302 262T218 236Q179 224 154 208T118 170T106 123Q106 78 133 54T209 29Q240 29 265 41T318 76T378
133L381 88H359Q336 58 312 36T258 0T191 -13ZM450 -11Q411 -11 390 16T366 100L364 102V331Q364 382 351 411T311 453T243 466Q210 466 182 458T127 434L155 463L136 380Q132 362 123 354T99 345Q84 345 76 353T65 374Q81 435 130 467T254 500Q306 500 342 484T397
431T416 339V108Q416 62 430 45T467 28Q481 28 491 32T510 43L523 20Q510 7 492 -2T450 -11ZM254 601Q282 601 299 619T316 664Q316 690 299 708T254 727Q226 727 210 709T193 664Q193 638 209 620T254 601ZM254 571Q215 571 187 597T159 664Q159 706 187 731T254
757Q294 757 322 732T350 664Q350 623 322 597T254 571Z" />
<glyph unicode="&#xe6;" horiz-adv-x="836" d="M194 -13Q132 -13 93 20T53 114Q53 152 69 180T119 229T205 266Q235 275 265 283T326 299T385 314V286Q344 275 301 262T218 237Q179 223 154 207T118 170T106 122Q106 80 133 55T211 29Q243 29 269 41T324 79T392
142L402 112H393Q359 72 330 44T268 2T194 -13ZM599 -12Q531 -12 478 17T394 104T364 243V331Q364 382 351 411T311 453T244 466Q210 466 182 458T129 434L155 463L137 379Q133 361 124 353T99 344Q84 344 76 352T65 373Q76 413 102 441T166 485T254 500Q324 500
363 468T407 365L400 367Q426 431 476 465T590 500Q651 500 694 476T761 407T784 306Q784 287 783 271T778 243H395V276H713Q725 279 729 290T733 318Q733 361 717 394T668 446T590 466Q540 466 501 440T440 364T417 248Q417 176 441 128T509 55T607 30Q660 30
698 48T765 100L786 82Q756 41 712 15T599 -12Z" />
<glyph unicode="&#xe7;" horiz-adv-x="523" d="M289 -12Q218 -12 166 19T84 106T54 240Q54 319 86 377T173 468T293 500Q338 500 375 486T437 447T475 387Q473 373 465 365T441 356Q425 356 416 365T401 390L374 469L415 430Q389 448 361 457T296 466Q243 466
201 439T134 362T110 244Q110 177 133 129T199 56T297 30Q331 30 359 39T410 64T455 103L477 82Q457 56 432 35T371 1T289 -12ZM269 -86L283 1H310L299 -80L288 -62Q322 -63 346 -73T383 -100T397 -142Q397 -177 371 -199T295 -222Q274 -222 258 -219T230 -211L238
-186Q250 -189 263 -191T291 -194Q322 -194 337 -180T353 -142Q353 -118 335 -103T269 -86Z" />
<glyph unicode="&#xe8;" horiz-adv-x="528" d="M289 -12Q220 -12 167 17T84 102T54 240Q54 320 84 378T165 468T280 500Q342 500 386 475T453 405T477 305Q477 286 476 270T471 243H87V276H406Q418 280 422 290T426 316Q426 359 409 393T360 446T280 466Q232 466
193 440T132 366T109 248Q109 176 133 127T200 54T299 30Q353 30 390 49T457 100L478 82Q459 55 433 34T371 0T289 -12ZM336 587L316 570Q296 590 277 609T239 648T202 684Q186 700 179 709T172 729Q172 741 179 748T198 755Q210 755 219 747T241 721Q257 700 272
678T304 633T336 587Z" />
<glyph unicode="&#xe9;" horiz-adv-x="528" d="M289 -12Q220 -12 167 17T84 102T54 240Q54 320 84 378T165 468T280 500Q342 500 386 475T453 405T477 305Q477 286 476 270T471 243H87V276H406Q418 280 422 290T426 316Q426 359 409 393T360 446T280 466Q232 466
193 440T132 366T109 248Q109 176 133 127T200 54T299 30Q353 30 390 49T457 100L478 82Q459 55 433 34T371 0T289 -12ZM234 587Q250 610 266 632T298 677T329 721Q342 739 351 747T371 755Q382 755 390 748T398 729Q398 719 391 710T368 684Q351 667 332 648T294
610T254 570L234 587Z" />
<glyph unicode="&#xea;" horiz-adv-x="528" d="M289 -12Q220 -12 167 17T84 102T54 240Q54 320 84 378T165 468T280 500Q342 500 386 475T453 405T477 305Q477 286 476 270T471 243H87V276H406Q418 280 422 290T426 316Q426 359 409 393T360 446T280 466Q232 466
193 440T132 366T109 248Q109 176 133 127T200 54T299 30Q353 30 390 49T457 100L478 82Q459 55 433 34T371 0T289 -12ZM397 560L265 702H305L173 560L153 578L272 739H298L417 578L397 560Z" />
<glyph unicode="&#xeb;" horiz-adv-x="528" d="M289 -12Q220 -12 167 17T84 102T54 240Q54 320 84 378T165 468T280 500Q342 500 386 475T453 405T477 305Q477 286 476 270T471 243H87V276H406Q418 280 422 290T426 316Q426 359 409 393T360 446T280 466Q232 466
193 440T132 366T109 248Q109 176 133 127T200 54T299 30Q353 30 390 49T457 100L478 82Q459 55 433 34T371 0T289 -12ZM186 632Q169 632 157 644T144 674Q144 693 156 704T186 716Q204 716 216 705T229 674Q229 656 217 644T186 632ZM384 632Q366 632 354 644T341
674Q341 693 353 704T384 716Q401 716 413 705T426 674Q426 656 414 644T384 632Z" />
<glyph unicode="&#xec;" horiz-adv-x="323" d="M44 0V33L154 38H172L278 33V0H44ZM135 0Q136 30 136 67T136 143T137 215V266Q137 311 137 352T135 433L40 435V465L172 492L190 489L189 375V215Q189 182 189 143T190 67T191 0H135ZM212 587L192 570Q172 590 153
609T115 648T78 684Q62 700 55 709T48 729Q48 741 55 748T74 755Q86 755 95 747T117 721Q133 700 148 678T180 633T212 587Z" />
<glyph unicode="&#xed;" horiz-adv-x="323" d="M44 0V33L154 38H172L278 33V0H44ZM135 0Q136 30 136 67T136 143T137 215V266Q137 311 137 352T135 433L40 435V465L172 492L190 489L189 375V215Q189 182 189 143T190 67T191 0H135ZM110 587Q126 610 142 632T174
677T205 721Q218 739 227 747T247 755Q258 755 266 748T274 729Q274 719 267 710T244 684Q227 667 208 648T170 610T130 570L110 587Z" />
<glyph unicode="&#xee;" horiz-adv-x="323" d="M44 0V33L154 38H172L278 33V0H44ZM135 0Q136 30 136 67T136 143T137 215V266Q137 311 137 352T135 433L40 435V465L172 492L190 489L189 375V215Q189 182 189 143T190 67T191 0H135ZM273 560L141 702H181L49 560L29
578L148 739H174L293 578L273 560Z" />
<glyph unicode="&#xef;" horiz-adv-x="323" d="M66 632Q48 632 36 644T23 674Q23 693 35 704T66 716Q84 716 96 705T109 674Q109 656 97 644T66 632ZM246 632Q229 632 216 644T203 674Q203 693 216 704T246 716Q264 716 276 705T289 674Q289 656 277 644T246 632ZM44
0V33L154 38H172L278 33V0H44ZM135 0Q136 30 136 67T136 143T137 215V266Q137 311 137 352T135 433L40 435V465L172 492L190 489L189 375V215Q189 182 189 143T190 67T191 0H135Z" />
<glyph unicode="&#xf0;" horiz-adv-x="555" d="M274 -12Q227 -12 188 4T118 51T71 127T54 230Q54 306 83 360T163 444T273 473Q323 473 358 454T415 401T449 325L450 323Q442 387 423 443T369 548T282 642T152 726L168 751Q251 712 312 663T415 555T476 424T497
268Q497 201 481 149T435 60T364 6T274 -12ZM275 22Q326 22 363 48T421 122T442 233Q442 299 420 344T361 414T276 439Q227 439 190 414T132 342T111 230Q111 166 132 120T190 48T275 22ZM170 543L155 565L476 737L491 710L170 543Z" />
<glyph unicode="&#xf1;" horiz-adv-x="640" d="M43 0V33L153 38H171L276 33V0H43ZM134 0Q135 30 135 67T135 143T136 215V266Q136 297 136 325T135 380T134 433L39 435V465L160 492L178 489L185 384H188V215Q188 182 188 143T188 67T189 0H134ZM378 0V33L487 38H505L611
33V0H378ZM469 0Q469 30 469 67T470 142T470 215V323Q470 393 443 423T366 453Q337 453 307 443T245 411T176 354L171 390H189Q218 425 248 449T312 487T382 500Q448 500 485 459T522 331V215Q522 181 522 143T523 67T524 0H469ZM171 605Q177 659 200 687T261 715Q287
715 304 703T337 674Q353 657 367 645T401 633Q424 633 438 650T461 708L489 701Q483 649 460 621T400 592Q374 592 357 604T323 632Q308 648 294 661T259 674Q237 674 222 657T199 598L171 605Z" />
<glyph unicode="&#xf2;" horiz-adv-x="575" d="M287 -12Q227 -12 174 16T87 102T54 242Q54 326 87 383T173 470T287 500Q348 500 401 471T487 384T521 243Q521 160 488 103T401 17T287 -12ZM287 22Q340 22 379 47T441 122T464 242Q464 313 442 363T380 439T287
465Q236 465 196 440T134 365T111 244Q111 172 133 123T196 48T287 22ZM339 587L319 570Q299 590 280 609T242 648T205 684Q189 700 182 709T175 729Q175 741 182 748T201 755Q213 755 222 747T244 721Q260 700 275 678T307 633T339 587Z" />
<glyph unicode="&#xf3;" horiz-adv-x="575" d="M287 -12Q227 -12 174 16T87 102T54 242Q54 326 87 383T173 470T287 500Q348 500 401 471T487 384T521 243Q521 160 488 103T401 17T287 -12ZM287 22Q340 22 379 47T441 122T464 242Q464 313 442 363T380 439T287
465Q236 465 196 440T134 365T111 244Q111 172 133 123T196 48T287 22ZM237 587Q253 610 269 632T301 677T332 721Q345 739 354 747T374 755Q385 755 393 748T401 729Q401 719 394 710T371 684Q354 667 335 648T297 610T257 570L237 587Z" />
<glyph unicode="&#xf4;" horiz-adv-x="575" d="M287 -12Q227 -12 174 16T87 102T54 242Q54 326 87 383T173 470T287 500Q348 500 401 471T487 384T521 243Q521 160 488 103T401 17T287 -12ZM287 22Q340 22 379 47T441 122T464 242Q464 313 442 363T380 439T287
465Q236 465 196 440T134 365T111 244Q111 172 133 123T196 48T287 22ZM400 560L268 702H308L176 560L156 578L275 739H301L420 578L400 560Z" />
<glyph unicode="&#xf5;" horiz-adv-x="575" d="M287 -12Q227 -12 174 16T87 102T54 242Q54 326 87 383T173 470T287 500Q348 500 401 471T487 384T521 243Q521 160 488 103T401 17T287 -12ZM287 22Q340 22 379 47T441 122T464 242Q464 313 442 363T380 439T287
465Q236 465 196 440T134 365T111 244Q111 172 133 123T196 48T287 22ZM129 605Q135 659 158 687T219 715Q245 715 262 703T295 674Q311 657 325 645T359 633Q382 633 396 650T419 708L447 701Q441 649 418 621T358 592Q332 592 315 604T281 632Q266 648 252 661T217
674Q195 674 180 657T157 598L129 605Z" />
<glyph unicode="&#xf6;" horiz-adv-x="575" d="M287 -12Q227 -12 174 16T87 102T54 242Q54 326 87 383T173 470T287 500Q348 500 401 471T487 384T521 243Q521 160 488 103T401 17T287 -12ZM287 22Q340 22 379 47T441 122T464 242Q464 313 442 363T380 439T287
465Q236 465 196 440T134 365T111 244Q111 172 133 123T196 48T287 22ZM189 632Q172 632 160 644T147 674Q147 693 159 704T189 716Q207 716 219 705T232 674Q232 656 220 644T189 632ZM387 632Q369 632 357 644T344 674Q344 693 356 704T387 716Q404 716 416 705T429
674Q429 656 417 644T387 632Z" />
<glyph unicode="&#xf7;" horiz-adv-x="534" d="M267 98Q248 98 235 110T222 141Q222 160 235 172T267 184Q286 184 299 172T312 141Q312 123 299 111T267 98ZM267 480Q248 480 235 493T222 523Q222 543 235 555T267 567Q286 567 299 555T312 523Q312 506 299 493T267
480ZM496 311H38V352H496V311Z" />
<glyph unicode="&#xf8;" horiz-adv-x="575" d="M505 485L92 -19L67 2L481 506L505 485ZM287 -12Q227 -12 174 16T87 102T54 242Q54 326 87 383T173 470T287 500Q348 500 401 471T487 384T521 243Q521 160 488 103T401 17T287 -12ZM287 21Q340 21 380 46T443 121T466
242Q466 314 444 364T381 440T287 466Q235 466 195 440T132 365T109 244Q109 171 131 122T194 47T287 21Z" />
<glyph unicode="&#xf9;" horiz-adv-x="632" d="M262 -12Q192 -12 154 29T117 162L118 460L139 438L24 449V478L154 490L171 484L169 375V171Q169 97 197 66T277 34Q310 34 340 45T401 78T461 131L469 95H448Q424 63 396 39T335 2T262 -12ZM458 -5L454 104H451L452
440L358 449V478L488 490L505 484L503 375V39L593 31V0L458 -5ZM356 587L336 570Q316 590 297 609T259 648T222 684Q206 700 199 709T192 729Q192 741 199 748T218 755Q230 755 239 747T261 721Q277 700 292 678T324 633T356 587Z" />
<glyph unicode="&#xfa;" horiz-adv-x="632" d="M262 -12Q192 -12 154 29T117 162L118 460L139 438L24 449V478L154 490L171 484L169 375V171Q169 97 197 66T277 34Q310 34 340 45T401 78T461 131L469 95H448Q424 63 396 39T335 2T262 -12ZM458 -5L454 104H451L452
440L358 449V478L488 490L505 484L503 375V39L593 31V0L458 -5ZM254 587Q270 610 286 632T318 677T349 721Q362 739 371 747T391 755Q402 755 410 748T418 729Q418 719 411 710T388 684Q371 667 352 648T314 610T274 570L254 587Z" />
<glyph unicode="&#xfb;" horiz-adv-x="632" d="M262 -12Q192 -12 154 29T117 162L118 460L139 438L24 449V478L154 490L171 484L169 375V171Q169 97 197 66T277 34Q310 34 340 45T401 78T461 131L469 95H448Q424 63 396 39T335 2T262 -12ZM458 -5L454 104H451L452
440L358 449V478L488 490L505 484L503 375V39L593 31V0L458 -5ZM417 560L285 702H325L193 560L173 578L292 739H318L437 578L417 560Z" />
<glyph unicode="&#xfc;" horiz-adv-x="632" d="M262 -12Q192 -12 154 29T117 162L118 460L139 438L24 449V478L154 490L171 484L169 375V171Q169 97 197 66T277 34Q310 34 340 45T401 78T461 131L469 95H448Q424 63 396 39T335 2T262 -12ZM458 -5L454 104H451L452
440L358 449V478L488 490L505 484L503 375V39L593 31V0L458 -5ZM206 632Q189 632 177 644T164 674Q164 693 176 704T206 716Q224 716 236 705T249 674Q249 656 237 644T206 632ZM404 632Q386 632 374 644T361 674Q361 693 373 704T404 716Q421 716 433 705T446
674Q446 656 434 644T404 632Z" />
<glyph unicode="&#xfd;" horiz-adv-x="559" d="M82 -250Q57 -250 39 -245T10 -230T-3 -209Q0 -195 12 -187T44 -178Q63 -178 78 -185T110 -207L134 -228L109 -229L113 -221Q142 -210 166 -188T212 -131T251 -52L271 -1L281 2L367 256L452 487H495L290 -43Q264
-110 234 -156T166 -226T82 -250ZM265 -49L63 487H123L286 25L303 18L265 -49ZM8 456V487H228V456L119 449H99L8 456ZM346 456V487H548V456L468 449H449L346 456ZM239 587Q255 610 271 632T303 677T334 721Q347 739 356 747T376 755Q387 755 395 748T403 729Q403
719 396 710T373 684Q356 667 337 648T299 610T259 570L239 587Z" />
<glyph unicode="&#xfe;" horiz-adv-x="611" d="M130 -239Q130 -206 130 -170T131 -96T131 -23V684L34 690V720L165 740L185 736L183 603L181 395L184 390V88L181 85L183 -26Q183 -60 183 -97T184 -171T185 -239H130ZM347 -12Q311 -12 281 -1T226 34T179 93H162L167
132Q208 80 247 54T337 27Q383 27 420 50T479 121T501 245Q501 352 455 405T338 459Q306 459 278 448T223 414T167 353L161 391H178Q200 427 226 451T284 487T352 500Q411 500 457 470T531 384T558 247Q558 166 531 108T456 19T347 -12ZM38 -239V-206L148 -200H166L290
-206V-239H38Z" />
<glyph unicode="&#xff;" horiz-adv-x="559" d="M82 -250Q57 -250 39 -245T10 -230T-3 -209Q0 -195 12 -187T44 -178Q63 -178 78 -185T110 -207L134 -228L109 -229L113 -221Q142 -210 166 -188T212 -131T251 -52L271 -1L281 2L367 256L452 487H495L290 -43Q264
-110 234 -156T166 -226T82 -250ZM265 -49L63 487H123L286 25L303 18L265 -49ZM8 456V487H228V456L119 449H99L8 456ZM346 456V487H548V456L468 449H449L346 456ZM191 632Q174 632 162 644T149 674Q149 693 161 704T191 716Q209 716 221 705T234 674Q234 656 222
644T191 632ZM389 632Q371 632 359 644T346 674Q346 693 358 704T389 716Q406 716 418 705T431 674Q431 656 419 644T389 632Z" />
<glyph unicode="&#x2013;" horiz-adv-x="511" d="M40 229V273H471V229H40Z" />
<glyph unicode="&#x2014;" horiz-adv-x="811" d="M40 229V273H771V229H40Z" />
<glyph unicode="&#x2018;" horiz-adv-x="216" d="M99 506Q88 506 79 509T62 519Q57 531 55 545T52 577Q52 613 65 643T104 697T166 739L178 715Q149 700 130 684T100 646T85 595L79 612L107 594Q125 589 134 578T143 549Q143 530 131 518T99 506Z" />
<glyph unicode="&#x2019;" horiz-adv-x="216" d="M121 733Q132 733 141 730T158 720Q163 708 165 694T168 662Q168 626 155 596T116 542T54 500L42 524Q71 539 90 555T120 593T135 644L141 627L113 645Q95 650 86 661T77 690Q77 709 89 721T121 733Z" />
<glyph unicode="&#x201a;" horiz-adv-x="216" d="M118 81Q129 81 138 78T155 68Q160 56 162 42T165 10Q165 -26 152 -56T113 -110T51 -152L39 -128Q68 -113 87 -97T117 -59T132 -8L138 -25L110 -7Q92 -2 83 9T74 38Q74 57 86 69T118 81Z" />
<glyph unicode="&#x201c;" horiz-adv-x="397" d="M99 506Q88 506 79 509T62 519Q57 531 55 545T52 577Q52 613 65 643T104 697T166 739L178 715Q149 700 130 684T100 646T85 595L79 612L107 594Q125 589 134 578T143 549Q143 530 131 518T99 506ZM280 506Q269
506 260 509T243 519Q238 531 236 545T233 577Q233 613 246 643T285 697T347 739L359 715Q330 700 311 684T281 646T266 595L260 612L288 594Q306 589 315 578T324 549Q324 530 312 518T280 506Z" />
<glyph unicode="&#x201d;" horiz-adv-x="397" d="M121 733Q132 733 141 730T158 720Q163 708 165 694T168 662Q168 626 155 596T116 542T54 500L42 524Q71 539 90 555T120 593T135 644L141 627L113 645Q95 650 86 661T77 690Q77 709 89 721T121 733ZM302 733Q313
733 322 730T339 720Q344 708 346 694T349 662Q349 626 336 596T297 542T235 500L223 524Q252 539 271 555T301 593T316 644L322 627L294 645Q276 650 267 661T258 690Q258 709 270 721T302 733Z" />
<glyph unicode="&#x201e;" horiz-adv-x="397" d="M118 81Q129 81 138 78T155 68Q160 56 162 42T165 10Q165 -26 152 -56T113 -110T51 -152L39 -128Q68 -113 87 -97T117 -59T132 -8L138 -25L110 -7Q92 -2 83 9T74 38Q74 57 86 69T118 81ZM299 81Q310 81 319 78T336
68Q341 56 343 42T346 10Q346 -26 333 -56T294 -110T232 -152L220 -128Q249 -113 268 -97T298 -59T313 -8L319 -25L291 -7Q273 -2 264 9T255 38Q255 57 267 69T299 81Z" />
<glyph unicode="&#x2022;" horiz-adv-x="302" d="M151 235Q117 235 92 259T66 322Q66 360 91 384T151 408Q185 408 210 384T236 322Q236 283 211 259T151 235Z" />
<glyph unicode="&#x2039;" horiz-adv-x="300" d="M248 58L31 248V278L248 468L267 447L73 250V276L267 80L248 58Z" />
<glyph unicode="&#x203a;" horiz-adv-x="300" d="M52 468L269 278V248L52 58L33 79L227 276V250L33 446L52 468Z" />
</font>
</defs>
</svg>
